<svg width="50" height="24" viewBox="0 0 50 30" fill="none" xmlns="http://www.w3.org/2000/svg">
<g clip-path="url(#clip0_4825_415)">
<path d="M0.00183105 30H49.9982V0H0.00183105V30Z" fill="black"/>
<path d="M0.580688 29.462H49.4653V0.546143H0.580688V29.462Z" fill="white"/>
<path d="M11.3636 16.5633L12.3093 17.588L13.2865 16.5701H14.0694V16.8847L12.8448 18.1644L14.0694 19.5328V16.5701H16.2798C16.6979 16.5701 17.3109 16.7528 17.3109 17.5719C17.3109 18.7211 16.5043 18.7347 16.0626 18.7347H14.9148V19.8473H13.2786L12.2791 18.757L11.2553 19.8392H8.00202V16.5627H11.3636V16.5633V16.5633ZM21.3779 16.5633H24.1659V17.2698H22.2311V17.8834H24.112V18.505H22.2311V19.1538H24.1659V19.8398H21.3779V16.5633V16.5633ZM18.5677 19.8479H17.7145V16.5708H19.9321C20.3515 16.5708 20.9559 16.7466 20.9559 17.4481C20.9559 17.8443 20.8319 18.136 20.3666 18.3558C20.7695 18.3997 20.9251 18.6486 20.9251 19.1749L20.9559 19.8479H20.1257L20.1027 19.2473C20.0955 18.97 19.9787 18.692 19.6847 18.692H18.5677V19.8479V19.8479ZM29.5199 17.8406C30.5693 17.8902 30.6559 18.3849 30.6559 18.9111C30.6559 19.5253 30.1211 19.8547 29.5625 19.8547H27.7715V19.1532H29.1675C29.4044 19.1532 29.7568 19.1532 29.7568 18.8375C29.7568 18.6876 29.6945 18.5929 29.4424 18.5669C29.2466 18.5489 29.0503 18.5361 28.8538 18.5285C27.9067 18.505 27.6869 18.061 27.6869 17.5199C27.6869 16.9057 28.1443 16.5695 28.7028 16.5695H30.4938V17.2723H29.1832C28.8853 17.276 28.563 17.2388 28.563 17.5577C28.563 17.7583 28.7225 17.7985 28.9233 17.8177C28.9929 17.8183 29.4582 17.8406 29.5199 17.8406V17.8406ZM26.3251 17.8406C27.3738 17.8902 27.4611 18.3849 27.4611 18.9111C27.4611 19.5253 26.9256 19.8547 26.3677 19.8547H24.576V19.1532H25.972C26.2082 19.1532 26.562 19.1532 26.562 18.8375C26.562 18.6876 26.4996 18.5929 26.2476 18.5669C26.1347 18.552 25.72 18.5297 25.6589 18.5285C24.7119 18.505 24.492 18.061 24.492 17.5199C24.492 16.9057 24.9495 16.5695 25.5073 16.5695H27.299V17.2723H25.9884C25.6898 17.276 25.3682 17.2388 25.3682 17.5577C25.3682 17.7583 25.527 17.7985 25.7291 17.8177C25.7981 17.8183 26.2634 17.8406 26.3251 17.8406V17.8406ZM15.0854 14.2149H14.2322V10.9378H16.4498C16.8685 10.9378 17.4743 11.1136 17.4743 11.8151C17.4743 12.2108 17.3503 12.5036 16.8849 12.7228C17.2879 12.7667 17.4435 13.0156 17.4435 13.5419L17.4743 14.2149H16.6447L16.6211 13.615C16.6132 13.337 16.4977 13.0596 16.2024 13.0596H15.086V14.2149H15.0854V14.2149ZM17.9088 14.2149H18.7613V10.9341H17.9088V14.2149ZM10.956 10.9378H13.7433V11.6436H11.8105V12.2584H13.6901V12.8807H11.8105V13.5277H13.7433V14.2149H10.956V10.9378V10.9378ZM4.73106 14.2149H6.44858V11.7829L7.5879 14.2149H8.36364L9.52987 11.8232V14.2149H10.3824V10.9378H9.0219L7.97512 13.1364L6.93227 10.9378H5.59474V14.0942L4.10561 10.9378H2.9781L1.45813 14.2149H2.35791L2.69065 13.4837H4.39241L4.73106 14.2149V14.2149ZM23.669 13.4856H21.9679L21.6345 14.2168H20.5096C19.5639 14.2168 19.1446 13.4689 19.1649 12.5618C19.1938 11.2158 20.0371 10.9359 20.425 10.9359H21.5381V11.6492H21.0111C20.4447 11.6492 20.003 11.7049 20.003 12.4727V12.7104C20.0069 13.2881 20.3279 13.4249 20.5333 13.4651C20.5838 13.4763 20.677 13.4806 20.7111 13.4781L21.08 13.4763L22.2547 10.9378H23.3836L24.8372 14.0137V10.9359H26.0967L27.5353 13.2051V10.9359H28.3878V14.2168H27.2248L25.6898 11.817V14.2168H24.007L23.669 13.4856V13.4856Z" fill="#00ACEC"/>
<path d="M30.501 16.0593V1.47229H1.53162V12.7519L2.61778 10.4412H4.46328L5.06838 11.8157V10.4412H7.31618L7.99872 11.8021L8.66552 10.4412H16.5903C16.9 10.4412 17.3187 10.544 17.5058 10.8653V10.4412H19.1649V10.9384C19.3821 10.661 19.7076 10.4412 20.3429 10.4412H23.7242L24.3443 11.7717V10.4412H26.3454L27.0581 11.5972V10.4412H28.8879V14.7121H26.919L26.0966 13.4546V14.7121H23.6001L23.1971 13.8781H22.4057L22.0335 14.7121H20.467C20.1257 14.6836 19.3355 14.5511 19.1649 14.0545V14.7121H16.1564V13.7765C16.1564 13.644 16.0324 13.4837 15.8618 13.4837H15.5362V14.7121H9.13083V13.7468L8.65042 14.7121H7.34768L6.85152 13.732V14.7121H4.29264L3.95137 13.9518H3.12903L2.77267 14.7121H1.53162V28.5084H30.501V20.0528C30.3461 20.2144 30.0981 20.3457 29.7259 20.3457H27.3055V20.0237C27.1198 20.2144 26.8566 20.3457 26.4373 20.3457H19.6144V19.4535C19.5987 19.3358 19.661 19.0876 19.3198 19.0876H19.0408V20.3457H17.2262V18.8962C17.0398 19.1903 16.6375 19.204 16.3737 19.2188H15.4115V20.3457H12.9925L12.2942 19.5408L11.5499 20.3457H7.44087V16.0593H11.6123L12.3408 16.8345L13.0856 16.0593H16.3888C16.6211 16.0729 17.0628 16.1757 17.2262 16.4098V16.0593H20.0489C20.297 16.0593 20.7774 16.1609 20.9795 16.468V16.0593H24.515V16.4389C24.7007 16.2054 24.996 16.0593 25.445 16.0593H27.7092V16.4252C27.8798 16.1906 28.33 16.0593 28.5938 16.0593H30.501V16.0593ZM38.4737 15.6866C38.4737 16.2345 36.2626 15.6303 36.2626 16.9627C36.2626 17.5713 36.7844 17.8468 37.3711 17.8468C37.8338 17.8468 38.1888 17.7564 38.5393 17.4487L38.6653 17.762H39.7803C39.7167 17.648 39.7068 17.4994 39.7068 17.3323V15.9615C39.7068 15.2619 39.6176 14.7474 38.1475 14.7474C36.9202 14.7474 36.4516 15.1108 36.4516 15.7312H37.6376C37.6671 15.4798 37.8988 15.447 38.0707 15.447C38.202 15.447 38.4737 15.4748 38.4737 15.6866V15.6866ZM44.8896 17.367V17.7589H45.9974V13.7307H44.7655V15.1238C44.5037 14.8328 44.2313 14.7436 43.8402 14.7436C43.0986 14.7436 42.5237 15.3752 42.5237 16.3491C42.5237 17.1769 42.9982 17.8425 43.9347 17.8425C44.3331 17.8425 44.5995 17.7254 44.8896 17.367V17.367ZM42.204 15.7522V14.7604C42.1509 14.7548 42.0971 14.7436 42.0432 14.7436C41.5642 14.7436 41.2609 14.9616 41.089 15.421H41.0772V14.8278H39.9569V17.7583H41.1894V16.6042C41.1894 15.972 41.4447 15.7479 41.9487 15.7479L42.204 15.7522V15.7522ZM34.8437 15.2631C34.8017 14.8446 34.5228 14.6037 34.0844 14.6037C33.5922 14.6037 33.2955 15.0012 33.2955 15.7782C33.2955 16.3435 33.4261 16.8741 34.1369 16.8741C34.5884 16.8741 34.8017 16.5788 34.8555 16.1924H36.2009C36.0775 17.2326 35.288 17.8579 34.1625 17.8579C32.7515 17.8579 31.897 17.0431 31.897 15.733C31.897 14.4297 32.8335 13.6187 34.026 13.6187C35.33 13.6187 36.0598 14.2285 36.1727 15.2625H34.8437V15.2631V15.2631Z" fill="#00ACEC"/>
<path d="M14.9154 18.0629H15.978C16.3265 18.0629 16.4505 17.8722 16.4505 17.653C16.4505 17.492 16.3383 17.2772 15.9812 17.2772H14.9154V18.0629ZM10.79 17.2698H8.85588V17.8833H10.7355V18.5049H8.85588V19.1538H10.8215L11.76 18.165L10.9298 17.2728L10.79 17.2698ZM18.5677 18.0195H19.6302C19.9787 18.0195 20.1028 17.8728 20.1028 17.653C20.1028 17.492 19.9905 17.2772 19.6335 17.2772H18.5677V18.0195V18.0195ZM15.0854 12.3866H16.1479C16.4971 12.3866 16.6205 12.2404 16.6205 12.0207C16.6205 11.8603 16.5082 11.6436 16.1512 11.6436H15.0854V12.3866V12.3866ZM4.06297 12.7785H3.02472L3.534 11.6324L4.06297 12.7785ZM22.8093 11.6343L22.3013 12.7797H23.3435L22.8093 11.6343Z" fill="white"/>
<path d="M48.2918 18.6566L37.8561 28.501H39.338L48.2918 20.0546V18.6566Z" fill="#3B4095"/>
<path d="M48.2918 21.4113L40.7773 28.5011H42.2579L48.2918 22.8099V21.4113Z" fill="#00ACEC"/>
<path d="M48.2918 24.1664L43.6958 28.501H45.179L48.2918 25.5638V24.1664Z" fill="#6CB35E"/>
<path d="M31.561 26.9508C31.5614 26.7463 31.6045 26.544 31.6879 26.3553C31.7713 26.1666 31.8932 25.9953 32.0468 25.851C32.2004 25.7068 32.3826 25.5926 32.583 25.5149C32.7834 25.4371 32.9981 25.3974 33.2148 25.398C33.431 25.3978 33.6451 25.4378 33.8449 25.5158C34.0447 25.5938 34.2262 25.7082 34.3791 25.8524C34.532 25.9966 34.6532 26.1679 34.7359 26.3563C34.8185 26.5448 34.861 26.7468 34.8608 26.9508C34.8618 27.1553 34.8199 27.358 34.7376 27.5473C34.6553 27.7365 34.5343 27.9086 34.3814 28.0536C34.2284 28.1986 34.0467 28.3137 33.8465 28.3923C33.6463 28.4709 33.4317 28.5115 33.2148 28.5116C32.9975 28.5119 32.7823 28.4717 32.5815 28.3933C32.3807 28.3149 32.1982 28.2 32.0446 28.055C31.8909 27.91 31.7691 27.7378 31.6862 27.5483C31.6032 27.3588 31.5606 27.1558 31.561 26.9508V26.9508Z" fill="#00ACEC"/>
<path d="M34.6619 26.9507C34.662 26.7714 34.6246 26.5938 34.5519 26.4282C34.4792 26.2626 34.3726 26.1121 34.2382 25.9853C34.1038 25.8586 33.9442 25.7581 33.7686 25.6896C33.593 25.6211 33.4048 25.5859 33.2148 25.5861C33.0245 25.5856 32.8359 25.6205 32.6599 25.6889C32.484 25.7572 32.324 25.8576 32.1892 25.9844C32.0544 26.1111 31.9475 26.2617 31.8745 26.4275C31.8014 26.5933 31.7638 26.7711 31.7637 26.9507C31.7637 27.3132 31.9164 27.6609 32.1882 27.9173C32.4599 28.1737 32.8285 28.3177 33.2128 28.3177C33.5972 28.3177 33.9657 28.1737 34.2375 27.9173C34.5092 27.6609 34.6619 27.3132 34.6619 26.9507V26.9507Z" fill="white"/>
<path d="M34.0352 27.8231H33.7681L33.2398 27.02H32.8263V27.8231H32.6012V26.082H33.4045C33.56 26.082 33.7156 26.0907 33.8541 26.1681C33.9925 26.2418 34.0608 26.3966 34.0608 26.5427C34.0608 26.8857 33.8068 27.012 33.478 27.02L34.0352 27.8231V27.8231Z" fill="#00ACEC"/>
<path d="M33.1722 26.8529C33.4314 26.8529 33.8331 26.8938 33.8331 26.5384C33.8331 26.2697 33.5824 26.2375 33.3533 26.2375H32.827V26.8529H33.1722ZM38.4737 16.4643C38.477 17.0128 38.2985 17.1862 37.866 17.1862C37.6225 17.1862 37.4742 17.0853 37.4742 16.9404C37.4748 16.559 38.0714 16.6488 38.4737 16.4643V16.4643ZM44.8069 16.3213C44.8069 16.6618 44.6711 17.0029 44.2438 17.0029C43.8415 17.0029 43.7588 16.6457 43.7588 16.3374C43.7588 16.0142 43.8711 15.6439 44.2806 15.6439C44.6888 15.6439 44.8069 15.9962 44.8069 16.3213Z" fill="white"/>
</g>
<defs>
<clipPath id="clip0_4825_415">
<rect width="50" height="30" fill="white"/>
</clipPath>
</defs>
</svg>
