<svg width="50" height="16" viewBox="0 0 50 16" fill="none" xmlns="http://www.w3.org/2000/svg">
<g clip-path="url(#clip0_4807_322)">
<path d="M0.00170898 15.3314H49.9981V0.0513916H0.00170898V15.3314Z" fill="#9E9E9E"/>
<path d="M0.580566 15.0574H49.4652V0.32959H0.580566V15.0574Z" fill="white"/>
<path d="M11.3634 8.48765L12.3092 9.00956L13.2864 8.49112H14.0693V8.65132L12.8447 9.30315L14.0693 10.0001V8.49112H16.2797C16.6978 8.49112 17.3108 8.58415 17.3108 9.00136C17.3108 9.58665 16.5042 9.59359 16.0625 9.59359H14.9146V10.1603H13.2785L12.279 9.60494L11.2551 10.1562H8.0019V8.48734H11.3634V8.48765V8.48765ZM21.3778 8.48765H24.1657V8.84747H22.231V9.15998H24.1119V9.47659H22.231V9.80708H24.1657V10.1565H21.3778V8.48765V8.48765ZM18.5676 10.1606H17.7144V8.49144H19.932C20.3514 8.49144 20.9558 8.581 20.9558 8.93829C20.9558 9.14011 20.8318 9.28864 20.3665 9.40059C20.7694 9.42298 20.925 9.54975 20.925 9.8178L20.9558 10.1606H20.1256L20.1026 9.8547C20.0954 9.71342 19.9786 9.57183 19.6846 9.57183H18.5676V10.1606V10.1606ZM29.5198 9.13822C30.5692 9.16345 30.6558 9.41541 30.6558 9.68346C30.6558 9.99629 30.1209 10.1641 29.5624 10.1641H27.7714V9.80676H29.1673C29.4043 9.80676 29.7567 9.80676 29.7567 9.64593C29.7567 9.56962 29.6943 9.52137 29.4423 9.50813C29.2465 9.49898 29.0502 9.49246 28.8536 9.48857C27.9066 9.47659 27.6867 9.25049 27.6867 8.97487C27.6867 8.66204 28.1442 8.4908 28.7027 8.4908H30.4937V8.84873H29.1831C28.8851 8.85062 28.5629 8.8317 28.5629 8.9941C28.5629 9.09628 28.7224 9.11678 28.9232 9.12655C28.9928 9.12687 29.4581 9.13822 29.5198 9.13822V9.13822ZM26.3249 9.13822C27.3737 9.16345 27.461 9.41541 27.461 9.68346C27.461 9.99629 26.9254 10.1641 26.3676 10.1641H24.5759V9.80676H25.9719C26.2081 9.80676 26.5619 9.80676 26.5619 9.64593C26.5619 9.56962 26.4995 9.52137 26.2475 9.50813C26.1346 9.50056 25.7198 9.48921 25.6588 9.48857C24.7118 9.47659 24.4919 9.25049 24.4919 8.97487C24.4919 8.66204 24.9493 8.4908 25.5072 8.4908H27.2989V8.84873H25.9883C25.6896 8.85062 25.3681 8.8317 25.3681 8.9941C25.3681 9.09628 25.5269 9.11678 25.729 9.12655C25.7979 9.12687 26.2632 9.13822 26.3249 9.13822V9.13822ZM15.0853 7.29153H14.2321V5.62238H16.4497C16.8684 5.62238 17.4742 5.71194 17.4742 6.06923C17.4742 6.27074 17.3501 6.4199 16.8848 6.53153C17.2878 6.55392 17.4433 6.68069 17.4433 6.94874L17.4742 7.29153H16.6446L16.621 6.98595C16.6131 6.84436 16.4976 6.70308 16.2023 6.70308H15.0859V7.29153H15.0853V7.29153ZM17.9086 7.29153H18.7612V5.62048H17.9086V7.29153ZM10.9559 5.62238H13.7432V5.98188H11.8104V6.29502H13.69V6.61195H11.8104V6.94149H13.7432V7.29153H10.9559V5.62238V5.62238ZM4.73094 7.29153H6.44846V6.05283L7.58778 7.29153H8.36352L9.52975 6.07333V7.29153H10.3823V5.62238H9.02178L7.97499 6.74219L6.93215 5.62238H5.59462V7.23003L4.10549 5.62238H2.97798L1.45801 7.29153H2.35778L2.69053 6.9191H4.39229L4.73094 7.29153V7.29153ZM23.6689 6.92004H21.9678L21.6344 7.29247H20.5095C19.5638 7.29247 19.1444 6.91153 19.1648 6.44954C19.1937 5.76397 20.037 5.62143 20.4249 5.62143H21.5379V5.98471H21.0109C20.4446 5.98471 20.0029 6.0131 20.0029 6.40413V6.52522C20.0068 6.81945 20.3277 6.88914 20.5332 6.90964C20.5837 6.91531 20.6769 6.91752 20.711 6.91626L21.0798 6.91531L22.2546 5.62238H23.3834L24.8371 7.18904V5.62143H26.0965L27.5351 6.77719V5.62143H28.3877V7.29247H27.2247L25.6896 6.07017V7.29247H24.0069L23.6689 6.92004V6.92004Z" fill="#9E9E9E"/>
<path d="M30.5011 8.23093V0.80127H1.53174V6.54633L2.6179 5.36944H4.4634L5.0685 6.06952V5.36944H7.3163L7.99885 6.06258L8.66564 5.36944H16.5904C16.9001 5.36944 17.3189 5.42179 17.5059 5.58545V5.36944H19.165V5.62267C19.3822 5.48139 19.7078 5.36944 20.3431 5.36944H23.7243L24.3445 6.04713V5.36944H26.3455L27.0582 5.9582V5.36944H28.888V7.54473H26.9191L26.0968 6.90425V7.54473H23.6002L23.1973 7.11995H22.4058L22.0337 7.54473H20.4671C20.1258 7.53022 19.3356 7.46274 19.165 7.20983V7.54473H16.1566V7.06823C16.1566 7.00075 16.0325 6.91907 15.8619 6.91907H15.5364V7.54473H9.13095V7.0531L8.65054 7.54473H7.3478L6.85165 7.04553V7.54473H4.29276L3.95149 7.15748H3.12915L2.77279 7.54473H1.53174V14.5717H30.5011V10.2649C30.3463 10.3472 30.0982 10.4141 29.7261 10.4141H27.3057V10.2501C27.1199 10.3472 26.8568 10.4141 26.4374 10.4141H19.6146V9.95968C19.5988 9.89977 19.6612 9.77331 19.3199 9.77331H19.041V10.4141H17.2263V9.67587C17.0399 9.82566 16.6376 9.8326 16.3738 9.84017H15.4117V10.4141H12.9926L12.2943 10.0041L11.55 10.4141H7.441V8.23093H11.6124L12.3409 8.62575L13.0858 8.23093H16.3889C16.6212 8.23787 17.0629 8.29022 17.2263 8.40942V8.23093H20.049C20.2971 8.23093 20.7775 8.28265 20.9797 8.43906V8.23093H24.5151V8.42424C24.7008 8.30535 24.9962 8.23093 25.4451 8.23093H27.7093V8.4173C27.8799 8.29778 28.3301 8.23093 28.594 8.23093H30.5011V8.23093ZM38.4738 8.04109C38.4738 8.32018 36.2627 8.01239 36.2627 8.69103C36.2627 9.00102 36.7845 9.14135 37.3712 9.14135C37.8339 9.14135 38.189 9.09531 38.5394 8.93858L38.6654 9.09815H39.7805C39.7168 9.04012 39.707 8.96444 39.707 8.87929V8.18111C39.707 7.82476 39.6177 7.5627 38.1476 7.5627C36.9203 7.5627 36.4518 7.74781 36.4518 8.0638H37.6377C37.6672 7.93576 37.8989 7.91905 38.0708 7.91905C38.2021 7.91905 38.4738 7.93324 38.4738 8.04109V8.04109ZM44.8897 8.89695V9.09657H45.9975V7.0449H44.7657V7.75444C44.5038 7.60622 44.2314 7.56081 43.8403 7.56081C43.0987 7.56081 42.5238 7.88247 42.5238 8.37851C42.5238 8.80014 42.9983 9.13914 43.9348 9.13914C44.3332 9.13914 44.5996 9.07954 44.8897 8.89695V8.89695ZM42.2042 8.07452V7.56933C42.151 7.56649 42.0972 7.56081 42.0434 7.56081C41.5643 7.56081 41.2611 7.67181 41.0891 7.9058H41.0773V7.6037H39.957V9.09625H41.1895V8.50844C41.1895 8.18647 41.4448 8.07231 41.9489 8.07231L42.2042 8.07452V8.07452ZM34.8438 7.82539C34.8018 7.61221 34.5229 7.48954 34.0845 7.48954C33.5923 7.48954 33.2956 7.692 33.2956 8.08776C33.2956 8.37568 33.4262 8.64593 34.137 8.64593C34.5885 8.64593 34.8018 8.49551 34.8557 8.29873H36.2011C36.0777 8.82852 35.2881 9.14702 34.1626 9.14702C32.7516 9.14702 31.8971 8.73202 31.8971 8.06474C31.8971 7.40093 32.8336 6.98782 34.0261 6.98782C35.3301 6.98782 36.0599 7.29844 36.1728 7.82507H34.8438V7.82539V7.82539Z" fill="#9E9E9E"/>
<path d="M14.9154 9.25143H15.9779C16.3264 9.25143 16.4504 9.1543 16.4504 9.04267C16.4504 8.96067 16.3382 8.85125 15.9812 8.85125H14.9154V9.25143ZM10.7899 8.84746H8.85582V9.15998H10.7354V9.47659H8.85582V9.80708H10.8214L11.7599 9.30346L10.9297 8.84904L10.7899 8.84746ZM18.5676 9.22935H19.6302C19.9787 9.22935 20.1027 9.15462 20.1027 9.04267C20.1027 8.96067 19.9905 8.85125 19.6335 8.85125H18.5676V9.22935V9.22935ZM15.0853 6.36029H16.1479C16.497 6.36029 16.6204 6.28587 16.6204 6.17392C16.6204 6.09225 16.5082 5.98187 16.1512 5.98187H15.0853V6.36029V6.36029ZM4.06291 6.55991H3.02466L3.53394 5.9762L4.06291 6.55991ZM22.8093 5.97714L22.3013 6.56054H23.3435L22.8093 5.97714Z" fill="white"/>
<path d="M48.2919 9.55383L37.8562 14.5679H39.3381L48.2919 10.2659V9.55383Z" fill="#9E9E9E"/>
<path d="M48.2919 10.9568L40.7773 14.5679H42.2579L48.2919 11.6692V10.9568Z" fill="#9E9E9E"/>
<path d="M48.2918 12.3601L43.6958 14.5679H45.179L48.2918 13.0719V12.3601Z" fill="#9E9E9E"/>
<path d="M31.561 13.7783C31.5615 13.6742 31.6046 13.5711 31.688 13.475C31.7713 13.3789 31.8933 13.2917 32.0469 13.2182C32.2005 13.1448 32.3827 13.0866 32.5831 13.047C32.7835 13.0074 32.9982 12.9871 33.2149 12.9874C33.4311 12.9873 33.6452 13.0077 33.845 13.0475C34.0448 13.0872 34.2263 13.1454 34.3792 13.2189C34.532 13.2924 34.6533 13.3796 34.7359 13.4756C34.8186 13.5716 34.861 13.6744 34.8609 13.7783C34.8618 13.8825 34.82 13.9858 34.7377 14.0822C34.6554 14.1785 34.5343 14.2662 34.3814 14.34C34.2285 14.4139 34.0467 14.4725 33.8466 14.5126C33.6464 14.5526 33.4317 14.5732 33.2149 14.5733C32.9976 14.5735 32.7823 14.553 32.5815 14.5131C32.3807 14.4731 32.1983 14.4146 32.0446 14.3407C31.891 14.2669 31.7692 14.1792 31.6862 14.0827C31.6032 13.9862 31.5607 13.8827 31.561 13.7783V13.7783Z" fill="#9E9E9E"/>
<path d="M34.6619 13.7783C34.6619 13.687 34.6246 13.5966 34.5519 13.5122C34.4792 13.4278 34.3726 13.3512 34.2382 13.2866C34.1038 13.2221 33.9442 13.1709 33.7686 13.136C33.593 13.1011 33.4048 13.0832 33.2147 13.0833C33.0244 13.083 32.8359 13.1008 32.6599 13.1356C32.4839 13.1704 32.3239 13.2216 32.1891 13.2861C32.0544 13.3507 31.9474 13.4274 31.8744 13.5118C31.8014 13.5963 31.7638 13.6868 31.7637 13.7783C31.7637 13.963 31.9163 14.1401 32.1881 14.2706C32.4599 14.4012 32.8284 14.4746 33.2128 14.4746C33.5971 14.4746 33.9657 14.4012 34.2374 14.2706C34.5092 14.1401 34.6619 13.963 34.6619 13.7783V13.7783Z" fill="white"/>
<path d="M34.0351 14.2226H33.768L33.2396 13.8136H32.8262V14.2226H32.6011V13.3358H33.4044C33.5599 13.3358 33.7155 13.3402 33.8539 13.3796C33.9924 13.4172 34.0607 13.496 34.0607 13.5704C34.0607 13.7451 33.8067 13.8095 33.4779 13.8136L34.0351 14.2226V14.2226Z" fill="#9E9E9E"/>
<path d="M33.1721 13.7285C33.4314 13.7285 33.833 13.7493 33.833 13.5683C33.833 13.4315 33.5823 13.4151 33.3533 13.4151H32.8269V13.7285H33.1721ZM38.4736 8.43725C38.4769 8.71665 38.2984 8.80495 37.8659 8.80495C37.6224 8.80495 37.4741 8.75355 37.4741 8.67975C37.4748 8.4855 38.0713 8.53122 38.4736 8.43725V8.43725ZM44.8069 8.3644C44.8069 8.53785 44.671 8.7116 44.2438 8.7116C43.8415 8.7116 43.7588 8.52965 43.7588 8.3726C43.7588 8.20799 43.871 8.01941 44.2805 8.01941C44.6887 8.01941 44.8069 8.19884 44.8069 8.3644Z" fill="white"/>
</g>
<defs>
<clipPath id="clip0_4807_322">
<rect width="50" height="15.28" fill="white" transform="translate(0 0.0513916)"/>
</clipPath>
</defs>
</svg>
