<svg width="50" height="16" viewBox="0 0 50 16" fill="none" xmlns="http://www.w3.org/2000/svg">
<g clip-path="url(#clip0_4807_336)">
<path d="M0.00634766 0.0513916H49.9939V15.3314H0.00634766V0.0513916Z" fill="#9E9E9E"/>
<path d="M10.3056 4.73203C10.7867 4.62829 11.2999 4.57296 11.8323 4.57296C14.1628 4.57296 16.1085 5.64354 16.5533 7.06684L19.8567 6.63113C19.0998 4.21333 15.7942 2.39307 11.8323 2.39307C10.9236 2.39307 10.0533 2.48851 9.23657 2.66555L10.3056 4.73203Z" fill="white"/>
<path d="M6.40774 11.6563L8.64209 10.0227C7.64572 9.45147 7.01711 8.61741 7.01711 7.68791C7.01711 6.7598 7.64572 5.92574 8.64209 5.35587L6.40774 3.72095C4.71433 4.69194 3.64526 6.1097 3.64526 7.68791C3.64526 9.2675 4.71433 10.6853 6.40774 11.6563" fill="white"/>
<path d="M16.5533 8.31311C16.1064 9.73502 14.1628 10.8042 11.8344 10.8042C11.2999 10.8042 10.7846 10.7489 10.3056 10.6438L9.23657 12.713C10.0533 12.8887 10.9257 12.9841 11.8344 12.9841C15.7921 12.9841 19.0955 11.1666 19.8567 8.75158L16.5533 8.31311Z" fill="white"/>
<path d="M22.7453 10.0905C22.6363 9.97709 22.4909 9.79589 22.4011 9.66172C21.8773 8.87608 21.8537 8.06277 22.2942 7.28265C22.7795 6.42646 23.7075 5.77222 24.907 5.43749C26.4144 5.01839 28.08 5.09999 29.5254 5.65465C30.4426 5.99491 31.0926 6.52052 31.5865 7.26467C31.6485 7.36011 31.7041 7.46108 31.7597 7.54822L22.7453 10.0905ZM25.7558 6.70034C24.6846 6.99772 24.133 7.64781 24.2484 8.40856L28.7813 7.14572C28.0009 6.55372 26.9874 6.35731 25.7558 6.70034V6.70034ZM29.3458 9.44733C29.3436 9.44733 29.3436 9.44872 29.3436 9.44872L29.2495 9.40722C28.978 9.69077 28.5568 9.92176 28.0244 10.0711C27.0109 10.3561 26.0723 10.2828 25.3966 9.89963L25.3346 9.96049C25.3346 9.96049 25.3346 9.95911 25.3325 9.95911L24.1822 11.0726C24.4687 11.2012 24.7744 11.3091 25.0951 11.3962C26.3652 11.7379 27.6652 11.7213 28.9459 11.3617C29.8717 11.1016 30.5987 10.706 31.0948 10.2039L29.3458 9.44733ZM34.9092 3.7998V9.98816L36.3973 10.3782L35.5528 11.6535L33.9107 11.2109C33.5429 11.1071 33.2906 10.9495 33.1025 10.771C32.9207 10.5898 32.786 10.3395 32.786 10.0048V3.7998H34.9092ZM38.7621 8.41271C38.7621 7.88572 39.1235 7.41267 39.6922 7.09178L38.1656 5.99076C37.1307 6.58276 36.4786 7.44725 36.4786 8.40995C36.4765 9.37402 37.1286 10.2399 38.1613 10.8319L39.6858 9.73088C39.1192 9.4086 38.7621 8.93832 38.7621 8.41271V8.41271ZM41.4733 10.168C41.1739 10.168 40.8832 10.1348 40.6137 10.0767L39.8846 11.4778C40.3828 11.5857 40.9152 11.6452 41.4711 11.6452C43.8872 11.6466 45.9035 10.5373 46.3717 9.06419L44.131 8.76819C43.8765 9.56905 42.784 10.1694 41.4733 10.168V10.168ZM41.4797 5.18022C40.9259 5.18022 40.3935 5.23831 39.8953 5.34482L40.618 6.74736C40.8896 6.68927 41.1782 6.65746 41.4776 6.65746C42.7904 6.65884 43.8851 7.26191 44.1331 8.06415L46.3739 7.77092C45.9142 6.29506 43.8979 5.1816 41.4797 5.18022V5.18022Z" fill="white"/>
</g>
<defs>
<clipPath id="clip0_4807_336">
<rect width="50" height="15.28" fill="white" transform="translate(0 0.0513916)"/>
</clipPath>
</defs>
</svg>
