<svg width="50" height="24" viewBox="0 0 50 30" fill="none" xmlns="http://www.w3.org/2000/svg">
<path d="M10.3056 9.18985C10.7867 8.98618 11.2999 8.87755 11.8323 8.87755C14.1628 8.87755 16.1085 10.9795 16.5533 13.7739L19.8567 12.9185C19.0998 8.17148 15.7942 4.59766 11.8323 4.59766C10.9236 4.59766 10.0533 4.78504 9.23657 5.13264L10.3056 9.18985Z" fill="#FFCB05"/>
<path d="M6.40786 22.7845L8.64221 19.5773C7.64584 18.4557 7.01723 16.8182 7.01723 14.9933C7.01723 13.171 7.64584 11.5335 8.64221 10.4146L6.40786 7.20471C4.71445 9.11111 3.64539 11.8947 3.64539 14.9933C3.64539 18.0945 4.71445 20.8781 6.40786 22.7845" fill="#00A4E0"/>
<path d="M16.5533 16.2207C16.1064 19.0124 14.1628 21.1116 11.8344 21.1116C11.2999 21.1116 10.7846 21.003 10.3056 20.7966L9.23657 24.8592C10.0533 25.2041 10.9257 25.3915 11.8344 25.3915C15.7921 25.3915 19.0955 21.8231 19.8567 17.0816L16.5533 16.2207Z" fill="#EF4123"/>
<path d="M22.7453 19.7104C22.6363 19.4877 22.4909 19.1319 22.4011 18.8685C21.8773 17.326 21.8537 15.7292 22.2942 14.1976C22.7795 12.5166 23.7075 11.232 24.907 10.5748C26.4144 9.752 28.08 9.91223 29.5254 11.0012C30.4426 11.6693 31.0926 12.7012 31.5865 14.1622C31.6485 14.3496 31.7041 14.5479 31.7597 14.719L22.7453 19.7104ZM25.7558 13.0543C24.6846 13.6381 24.133 14.9145 24.2484 16.4081L28.7813 13.9287C28.0009 12.7664 26.9874 12.3808 25.7558 13.0543V13.0543ZM29.3458 18.4476C29.3436 18.4476 29.3436 18.4503 29.3436 18.4503L29.2495 18.3688C28.978 18.9255 28.5568 19.3791 28.0244 19.6723C27.0109 20.2318 26.0723 20.0878 25.3966 19.3356L25.3346 19.4551C25.3346 19.4551 25.3346 19.4524 25.3325 19.4524L24.1822 21.6385C24.4687 21.891 24.7744 22.1029 25.0951 22.274C26.3652 22.9447 27.6652 22.9121 28.9459 22.2061C29.8717 21.6955 30.5987 20.9188 31.0948 19.933L29.3458 18.4476ZM34.9092 7.3595V19.5094L36.3973 20.2752L35.5528 22.7791L33.9107 21.9101C33.5429 21.7064 33.2906 21.3968 33.1025 21.0465C32.9207 20.6907 32.786 20.1992 32.786 19.542V7.3595H34.9092ZM38.7621 16.4163C38.7621 15.3816 39.1235 14.4528 39.6922 13.8228L38.1656 11.6611C37.1307 12.8234 36.4786 14.5207 36.4786 16.4108C36.4765 18.3036 37.1286 20.0037 38.1613 21.166L39.6858 19.0043C39.1192 18.3715 38.7621 17.4482 38.7621 16.4163V16.4163ZM41.4733 19.8624C41.1739 19.8624 40.8832 19.7973 40.6137 19.6832L39.8846 22.4342C40.3828 22.646 40.9152 22.7628 41.4711 22.7628C43.8872 22.7655 45.9035 20.5875 46.3717 17.6953L44.131 17.1142C43.8765 18.6866 42.784 19.8652 41.4733 19.8624V19.8624ZM41.4797 10.0697C40.9259 10.0697 40.3935 10.1838 39.8953 10.3929L40.618 13.1466C40.8896 13.0325 41.1782 12.9701 41.4776 12.9701C42.7904 12.9728 43.8851 14.1568 44.1331 15.7319L46.3739 15.1562C45.9142 12.2586 43.8979 10.0725 41.4797 10.0697V10.0697Z" fill="white"/>
</svg>
