<svg width="50" height="24" viewBox="0 0 50 30" fill="none" xmlns="http://www.w3.org/2000/svg">
<g clip-path="url(#clip0_4825_443)">
<path d="M13.7283 0H8.54732C6.25802 0.149226 4.38676 1.42042 3.84645 4.04182C3.56471 5.40894 3.40967 6.9104 3.18936 8.32758C2.06939 15.5335 1.0763 22.9379 0.00500488 30H40.3406C43.459 30 45.6002 29.0915 46.1787 25.6792C46.4475 24.0941 46.7049 22.299 46.9621 20.5575C47.9647 13.7675 48.968 6.97791 49.995 0H13.7283Z" fill="#822124"/>
<path d="M13.3239 10.6621C13.5406 10.4563 13.8196 9.51914 13.5008 9.12896C13.3998 9.00544 13.231 8.96959 12.9953 9.02452C12.7768 9.07538 12.6511 9.1778 12.5657 9.33812C12.4285 9.59585 12.3026 10.3734 12.5152 10.6622C12.7222 10.9433 13.186 10.7929 13.3239 10.6621V10.6621ZM10.2406 9.12896C10.0854 10.5177 9.91049 11.8794 9.73513 13.2405C8.60927 13.2568 7.45977 13.317 6.37385 13.2056C6.57894 11.874 6.72604 10.4624 6.92986 9.12896H5.71676C5.28253 12.5256 4.88745 15.9765 4.40259 19.3033H5.641C5.8352 17.5968 6.01694 15.8728 6.27277 14.2509C7.32866 14.2151 8.59416 14.1526 9.60884 14.2859C9.39962 15.972 9.14684 17.5976 8.95175 19.3033H10.1902C10.5882 15.8564 11.0073 12.4391 11.5044 9.12896H10.2406V9.12896ZM27.7548 12.0558C26.7912 11.5193 26.0336 12.426 25.6824 13.2754C25.7621 12.8975 25.7949 12.455 25.8595 12.0558H24.899C24.6642 14.5662 24.3182 16.9229 23.9893 19.3033H25.0761C25.2284 17.8904 25.2941 15.9858 25.632 14.6342C25.902 13.5542 26.6088 12.6341 27.6286 13.136C27.6427 12.7376 27.7254 12.4334 27.7548 12.0558V12.0558ZM28.3612 17.596C28.261 17.2391 28.2352 16.6501 28.2602 16.2021C28.3164 15.1954 28.5825 13.9697 28.9932 13.4147C29.5599 12.6488 30.6787 12.7756 31.5711 13.2057C31.5987 12.791 31.6591 12.4211 31.6975 12.0211C30.234 11.6915 28.8452 11.8966 28.1088 12.9619C27.3879 14.0047 26.9154 16.4015 27.2494 17.9096C27.6403 19.6744 29.3936 19.7703 30.8129 19.0944C30.8757 18.7396 30.909 18.3442 30.9645 17.9794C30.1888 18.5348 28.706 18.8235 28.3612 17.596V17.596ZM40.5681 12.0906C39.6076 11.4285 38.808 12.5395 38.4958 13.2056C38.5847 12.8638 38.5898 12.4061 38.6726 12.0557H37.7123C37.4534 14.5443 37.1413 16.9595 36.7773 19.3031H37.8894C37.8963 18.3426 38.0332 17.632 38.1419 16.6901C38.3743 14.6786 38.7156 12.4728 40.4167 13.1359C40.473 12.7958 40.4964 12.4099 40.5681 12.0906ZM12.2119 12.0558C12.1824 12.0617 12.1844 12.1109 12.1865 12.1603C11.9471 14.6292 11.623 16.9817 11.2768 19.3031H12.3635C12.6246 16.8176 12.9237 14.3846 13.2986 12.0557L12.2119 12.0558V12.0558ZM21.765 11.9165C20.9798 12 20.316 12.3114 19.8443 12.9967C19.2657 13.837 18.7973 15.6949 18.9345 17.387C19.1304 19.8009 21.3104 19.7141 23.054 19.1291C23.0837 18.7054 23.1581 18.3432 23.2056 17.9444C22.4874 18.315 21.2402 18.8322 20.5013 18.1885C19.9435 17.7021 19.9403 16.4711 20.1222 15.4009C21.2941 15.3495 22.5121 15.3593 23.6857 15.4009C23.76 14.6425 23.9731 13.8156 23.7867 13.0665C23.541 12.0775 22.6608 11.8213 21.765 11.9165ZM22.8012 14.5646H20.2485C20.3294 13.7555 20.8573 12.8662 21.6892 12.8224C22.4721 12.7811 23.0326 13.2187 22.8012 14.5646V14.5646ZM17.6456 12.0558C16.7258 11.5795 15.6049 12.1481 15.1188 12.689C15.1206 12.7128 15.1072 12.7161 15.0929 12.7178C15.1011 12.7082 15.1102 12.6986 15.1188 12.689C15.1187 12.687 15.1186 12.685 15.1183 12.6831C15.1265 12.4505 15.1858 12.2884 15.1941 12.0558H14.259C13.8693 15.6301 13.4072 19.1044 12.9196 22.5436H14.0063C14.1636 21.2042 14.2674 19.7911 14.4865 18.5367C14.7347 19.8561 16.3553 19.604 17.0391 19.0942C18.45 18.0422 19.5382 13.0359 17.6456 12.0558V12.0558ZM16.7863 17.9444C16.2049 18.7933 14.7755 18.7806 14.6634 17.352C14.6146 16.7304 14.7825 16.0787 14.8657 15.4357C14.9496 14.7848 15.0102 14.1603 15.093 13.589C15.6657 12.6249 17.3485 12.5084 17.5193 14.1116C17.6674 15.5035 17.2678 17.2413 16.7863 17.9444V17.9444ZM44.6117 8.91994C44.5186 10.0458 44.3941 11.1286 44.2328 12.1603C41.567 10.9969 39.9323 13.701 39.9617 17.0385C39.9675 17.684 40.048 18.324 40.3407 18.7806C40.8455 19.5672 42.2902 19.7557 43.0198 19.0941C43.1609 18.9661 43.3052 18.7331 43.3987 18.5716C43.4691 18.45 43.5807 18.1314 43.601 18.2231C43.5625 18.5766 43.5052 18.9043 43.5 19.3031H44.4856C44.6757 15.5464 45.2629 12.3377 45.6987 8.9198H44.6118V8.91994H44.6117ZM42.1856 18.5018C41.4541 18.5234 41.0903 17.8992 41.0735 16.8642C41.0444 15.0516 41.6211 13.0378 42.7922 12.8572C43.3374 12.7732 43.7322 12.948 44.1317 13.136C43.7649 15.1721 43.8972 18.4512 42.1856 18.5018V18.5018ZM32.8093 12.0558C32.7558 12.4698 32.6737 12.8445 32.6072 13.2405C33.2484 13.0187 35.2453 12.339 35.4378 13.5192C35.5016 13.9112 35.3914 14.3278 35.3114 14.6342C33.5057 14.3984 32.034 14.812 31.6467 16.5854C31.3875 17.7733 31.6758 18.9422 32.2281 19.2685C33.2917 19.8968 34.5855 19.177 35.0334 18.1885C34.9868 18.5306 34.9428 18.8766 34.9577 19.3033H35.8927C35.9027 18.0686 36.033 17.0692 36.1707 15.9582C36.2881 15.0121 36.509 14.0755 36.474 13.2405C36.3935 11.3281 34.0956 12.0046 32.8093 12.0558V12.0558ZM34.5784 17.9095C34.0184 18.6654 32.4463 18.8801 32.6072 17.0733C32.7406 15.5726 33.9258 15.2537 35.2101 15.4703C35.1147 16.2913 35.0052 17.3336 34.5784 17.9095V17.9095Z" fill="white"/>
</g>
<defs>
<clipPath id="clip0_4825_443">
<rect width="50" height="30" fill="white"/>
</clipPath>
</defs>
</svg>
