<svg width="50" height="16" viewBox="0 0 50 16" fill="none" xmlns="http://www.w3.org/2000/svg">
<g clip-path="url(#clip0_4807_487)">
<path d="M13.7284 0.0514526H8.54745C6.25814 0.127458 4.38688 0.774921 3.84657 2.11009C3.56484 2.80641 3.40979 3.57115 3.18948 4.29296C2.06951 7.96316 1.07643 11.7345 0.00512695 15.3315H40.3408C43.4591 15.3315 45.6003 14.8687 46.1788 13.1307C46.4476 12.3234 46.7051 11.4091 46.9623 10.5221C47.9648 7.0637 48.9682 3.60554 49.9951 0.0514526H13.7284Z" fill="#9E9E9E"/>
<path d="M13.3239 5.48201C13.5406 5.3772 13.8196 4.89987 13.5008 4.70114C13.3998 4.63822 13.231 4.61996 12.9953 4.64794C12.7768 4.67385 12.6511 4.72601 12.5657 4.80767C12.4285 4.93894 12.3026 5.33496 12.5152 5.48207C12.7222 5.62527 13.186 5.54864 13.3239 5.48201V5.48201ZM10.2406 4.70114C10.0854 5.40848 9.91049 6.10204 9.73513 6.79526C8.60927 6.8036 7.45977 6.83426 6.37385 6.77748C6.57894 6.09929 6.72604 5.3803 6.92986 4.70114H5.71676C5.28253 6.43115 4.88745 8.18879 4.40259 9.88325H5.641C5.8352 9.01411 6.01694 8.13601 6.27277 7.30994C7.32866 7.29168 8.59416 7.25984 9.60884 7.32771C9.39962 8.18652 9.14684 9.01452 8.95175 9.88325H10.1902C10.5882 8.12767 11.0073 6.38712 11.5044 4.70114H10.2406V4.70114ZM27.7548 6.1919C26.7912 5.91861 26.0336 6.38043 25.6824 6.81304C25.7621 6.62058 25.7949 6.39518 25.8595 6.1919H24.899C24.6642 7.47049 24.3182 8.67087 23.9893 9.88325H25.0761C25.2284 9.16364 25.2941 8.19355 25.632 7.50515C25.902 6.95506 26.6088 6.48641 27.6286 6.74206C27.6427 6.53913 27.7254 6.38422 27.7548 6.1919V6.1919ZM28.3612 9.01369C28.261 8.83191 28.2352 8.53189 28.2602 8.30373C28.3164 7.79098 28.5825 7.16668 28.9932 6.88401C29.5599 6.49392 30.6787 6.55849 31.5711 6.77755C31.5987 6.56635 31.6591 6.37795 31.6975 6.17419C30.234 6.00633 28.8452 6.11079 28.1088 6.65338C27.3879 7.18452 26.9154 8.4053 27.2494 9.17342C27.6403 10.0723 29.3936 10.1211 30.8129 9.77685C30.8757 9.59617 30.909 9.39476 30.9645 9.20898C30.1888 9.49185 28.706 9.6389 28.3612 9.01369V9.01369ZM40.5681 6.20961C39.6076 5.87237 38.808 6.43825 38.4958 6.77748C38.5847 6.60342 38.5898 6.3703 38.6726 6.19183H37.7123C37.4534 7.45933 37.1413 8.68948 36.7773 9.88318H37.8894C37.8963 9.39393 38.0332 9.03202 38.1419 8.55228C38.3743 7.52775 38.7156 6.40427 40.4167 6.74199C40.473 6.56876 40.4964 6.37223 40.5681 6.20961ZM12.2119 6.1919C12.1824 6.19486 12.1844 6.21994 12.1865 6.2451C11.9471 7.5026 11.623 8.70078 11.2768 9.88318H12.3635C12.6246 8.61719 12.9237 7.37802 13.2986 6.19183L12.2119 6.1919V6.1919ZM21.765 6.12092C20.9798 6.16344 20.316 6.32207 19.8443 6.67109C19.2657 7.09908 18.7973 8.04539 18.9345 8.90723C19.1304 10.1367 21.3104 10.0925 23.054 9.79456C23.0837 9.57874 23.1581 9.39427 23.2056 9.19113C22.4874 9.37987 21.2402 9.64331 20.5013 9.31544C19.9435 9.06772 19.9403 8.44072 20.1222 7.89566C21.2941 7.86947 22.5121 7.87443 23.6857 7.89566C23.76 7.50936 23.9731 7.08819 23.7867 6.70664C23.541 6.20292 22.6608 6.07241 21.765 6.12092ZM22.8012 7.46967H20.2485C20.3294 7.05759 20.8573 6.60466 21.6892 6.58233C22.4721 6.56132 23.0326 6.78417 22.8012 7.46967V7.46967ZM17.6456 6.1919C16.7258 5.94927 15.6049 6.23889 15.1188 6.51439C15.1206 6.52652 15.1072 6.52817 15.0929 6.52907C15.1011 6.52417 15.1102 6.51928 15.1188 6.51439C15.1187 6.51337 15.1186 6.51236 15.1183 6.51136C15.1265 6.3929 15.1858 6.31035 15.1941 6.1919H14.259C13.8693 8.01239 13.4072 9.78195 12.9196 11.5337H14.0063C14.1636 10.8515 14.2674 10.1317 14.4865 9.49281C14.7347 10.1648 16.3553 10.0364 17.0391 9.77678C18.45 9.24095 19.5382 6.69107 17.6456 6.1919V6.1919ZM16.7863 9.19113C16.2049 9.62353 14.7755 9.61705 14.6634 8.88938C14.6146 8.57282 14.7825 8.24089 14.8657 7.91337C14.9496 7.58185 15.0102 7.26377 15.093 6.97277C15.6657 6.48173 17.3485 6.4224 17.5193 7.23896C17.6674 7.94789 17.2678 8.83302 16.7863 9.19113V9.19113ZM44.6117 4.59467C44.5186 5.16813 44.3941 5.7196 44.2328 6.2451C41.567 5.65255 39.9323 7.02982 39.9617 8.72972C39.9675 9.05848 40.048 9.38449 40.3407 9.61705C40.8455 10.0177 42.2902 10.1137 43.0198 9.77671C43.1609 9.71153 43.3052 9.59287 43.3987 9.51059C43.4691 9.44864 43.5807 9.28636 43.601 9.33308C43.5625 9.51314 43.5052 9.68004 43.5 9.88318H44.4856C44.6757 7.96973 45.2629 6.33543 45.6987 4.5946H44.6118V4.59467H44.6117ZM42.1856 9.47503C41.4541 9.48606 41.0903 9.16812 41.0735 8.64097C41.0444 7.71774 41.6211 6.69204 42.7922 6.60004C43.3374 6.55725 43.7322 6.64628 44.1317 6.74206C43.7649 7.77913 43.8972 9.44926 42.1856 9.47503V9.47503ZM32.8093 6.1919C32.7558 6.40276 32.6737 6.59357 32.6072 6.79526C33.2484 6.68232 35.2453 6.33612 35.4378 6.93721C35.5016 7.13691 35.3914 7.34908 35.3114 7.50515C33.5057 7.38505 32.034 7.5957 31.6467 8.49895C31.3875 9.10396 31.6758 9.69933 32.2281 9.86554C33.2917 10.1855 34.5855 9.81896 35.0334 9.31544C34.9868 9.48971 34.9428 9.66591 34.9577 9.88325H35.8927C35.9027 9.25439 36.033 8.74536 36.1707 8.17949C36.2881 7.69761 36.509 7.22056 36.474 6.79526C36.3935 5.82124 34.0956 6.16578 32.8093 6.1919V6.1919ZM34.5784 9.17335C34.0184 9.55834 32.4463 9.6677 32.6072 8.74743C32.7406 7.9831 33.9258 7.82068 35.2101 7.93101C35.1147 8.34914 35.0052 8.88001 34.5784 9.17335V9.17335Z" fill="white"/>
</g>
<defs>
<clipPath id="clip0_4807_487">
<rect width="50" height="15.28" fill="white" transform="translate(0 0.0514526)"/>
</clipPath>
</defs>
</svg>
