<svg width="49" height="24" viewBox="0 0 49 31" fill="none" xmlns="http://www.w3.org/2000/svg">
<path d="M31.1339 27.1885H18.1546V3.86292H31.1342L31.1339 27.1885Z" fill="#FF5F00"/>
<path d="M48.6431 15.526C48.6431 23.719 42.0025 30.3605 33.8104 30.3605C30.4844 30.3654 27.2541 29.2479 24.6422 27.1888C28.093 24.4725 30.3085 20.2578 30.3085 15.526C30.3085 10.7942 28.093 6.57946 24.6422 3.86318C27.254 1.80412 30.4843 0.686595 33.8102 0.691422C42.0022 0.691422 48.6428 7.33298 48.6428 15.526" fill="#F79410"/>
<path d="M18.9772 15.526C18.9772 10.7944 21.1926 6.57946 24.6425 3.86318C22.0311 1.80406 18.8013 0.686509 15.4757 0.691422C7.28367 0.691422 0.643066 7.33298 0.643066 15.526C0.643066 23.719 7.28367 30.3606 15.4757 30.3606C18.8013 30.3655 22.0313 29.248 24.6428 27.1888C21.1931 24.473 18.9772 20.2578 18.9772 15.526Z" fill="#EB001B"/>
</svg>
