<svg width="146" height="21" viewBox="0 0 146 21" fill="none" xmlns="http://www.w3.org/2000/svg">
<path fill-rule="evenodd" clip-rule="evenodd" d="M130.199 13.8662L130.203 13.8617C130.59 13.34 130.851 12.8151 131.121 12.1302C131.368 11.5013 131.433 10.8624 131.429 10.1875C131.426 9.54608 131.294 8.89171 131.088 8.21524C130.892 7.64019 130.564 7.05405 130.164 6.52651L130.16 6.5221L130.157 6.51761C129.976 6.2675 129.577 6.19769 129.268 6.42123C129.02 6.60017 128.949 6.99377 129.165 7.30195C129.486 7.70281 129.722 8.17296 129.878 8.63334C130.04 9.11263 130.119 9.65838 130.122 10.1944C130.125 10.7305 130.052 11.2771 129.894 11.7581C129.743 12.2201 129.513 12.6927 129.196 13.097C128.983 13.4074 129.058 13.8002 129.308 13.9765C129.62 14.1968 130.018 14.1227 130.196 13.8707L130.199 13.8662ZM133.103 15.1034L133.095 15.1145C132.938 15.337 132.999 15.7507 133.33 15.9936C133.636 16.1743 133.991 16.085 134.222 15.7661C135.224 14.1397 135.817 12.2512 135.806 10.1642C135.795 8.146 135.181 6.19416 134.163 4.57953C133.917 4.24944 133.502 4.19288 133.28 4.35261C132.951 4.59045 132.863 4.9567 133.059 5.26646C133.96 6.67738 134.49 8.3857 134.499 10.1711C134.509 11.957 133.997 13.6713 133.11 15.0919L133.103 15.1034ZM138.295 2.47449L138.286 2.45724C138.152 2.19221 137.776 2.05725 137.391 2.24137C137.071 2.45449 136.988 2.80222 137.157 3.15137C138.408 5.19618 139.074 7.60176 139.088 10.1467C139.101 12.703 138.385 15.1125 137.234 17.1571C137.065 17.5098 137.152 17.859 137.475 18.0697C137.83 18.235 138.181 18.1409 138.388 17.8072C139.742 15.5452 140.48 12.945 140.465 10.1394C140.45 7.33243 139.684 4.73919 138.305 2.49098L138.295 2.47449ZM142.375 0.32945L142.369 0.317665C142.232 0.0479586 141.846 -0.0870414 141.454 0.111834C141.186 0.247324 141.051 0.628358 141.243 1.01741C142.772 3.68251 143.729 6.78887 143.747 10.1219C143.764 13.4463 142.915 16.5648 141.338 19.2564C141.171 19.608 141.259 19.9556 141.581 20.1656C141.934 20.3302 142.283 20.2378 142.491 19.9079C144.128 17.0039 145.073 13.6943 145.054 10.1149C145.035 6.53185 144.053 3.22941 142.382 0.340885L142.375 0.32945ZM9.36364 6.99998H10.7727C10.6667 6.40149 10.4735 5.8693 10.1932 5.40339C9.91288 4.93369 9.56439 4.53596 9.14773 4.21021C8.73106 3.88066 8.26326 3.63066 7.74432 3.46021C7.22917 3.28975 6.67803 3.20452 6.09091 3.20452C5.09848 3.20452 4.21591 3.44695 3.44318 3.9318C2.67045 4.41665 2.0625 5.10604 1.61932 5.99998C1.17614 6.89392 0.954545 7.95453 0.954545 9.1818C0.954545 10.4091 1.17614 11.4697 1.61932 12.3636C2.0625 13.2576 2.67045 13.9469 3.44318 14.4318C4.21591 14.9166 5.09848 15.1591 6.09091 15.1591C6.67803 15.1591 7.22917 15.0738 7.74432 14.9034C8.26326 14.7329 8.73106 14.4848 9.14773 14.1591C9.56439 13.8295 9.91288 13.4299 10.1932 12.9602C10.4735 12.4905 10.6667 11.9583 10.7727 11.3636H9.36364C9.2803 11.7651 9.13447 12.1212 8.92614 12.4318C8.72159 12.7386 8.47159 12.9981 8.17614 13.2102C7.88447 13.4185 7.56061 13.5757 7.20455 13.6818C6.84848 13.7879 6.47727 13.8409 6.09091 13.8409C5.38636 13.8409 4.74811 13.6629 4.17614 13.3068C3.60795 12.9507 3.1553 12.4261 2.81818 11.7329C2.48485 11.0398 2.31818 10.1894 2.31818 9.1818C2.31818 8.17422 2.48485 7.32384 2.81818 6.63066C3.1553 5.93748 3.60795 5.41286 4.17614 5.0568C4.74811 4.70074 5.38636 4.52271 6.09091 4.52271C6.47727 4.52271 6.84848 4.57574 7.20455 4.6818C7.56061 4.78786 7.88447 4.94695 8.17614 5.15907C8.47159 5.3674 8.72159 5.62498 8.92614 5.9318C9.13447 6.23862 9.2803 6.59468 9.36364 6.99998ZM12.0497 15H13.527L14.6968 11.7045H19.4026L20.5724 15H22.0497L17.777 3.36362H16.3224L12.0497 15ZM18.9589 10.4545L17.0952 5.20452H17.0043L15.1406 10.4545H18.9589ZM27.794 3.36362H23.8622V15H25.2713V10.4545H27.8168C27.9176 10.4545 28.0164 10.4527 28.1131 10.4489L30.5668 15H32.2031L29.5745 10.2017C29.7391 10.1457 29.8938 10.0803 30.0384 10.0057C30.6179 9.70263 31.0478 9.28596 31.3281 8.75566C31.6084 8.22536 31.7486 7.6174 31.7486 6.9318C31.7486 6.24619 31.6084 5.63445 31.3281 5.09657C31.0478 4.55869 30.616 4.13634 30.0327 3.82952C29.4493 3.51892 28.7031 3.36362 27.794 3.36362ZM25.2713 9.1818H27.7713C28.3925 9.1818 28.8925 9.09089 29.2713 8.90907C29.6539 8.72725 29.9304 8.46968 30.1009 8.13634C30.2751 7.79922 30.3622 7.39771 30.3622 6.9318C30.3622 6.46589 30.2751 6.05869 30.1009 5.71021C29.9266 5.36172 29.6482 5.09278 29.2656 4.90339C28.883 4.71021 28.3774 4.61362 27.7486 4.61362H25.2713V9.1818ZM34.0966 15H37.6875C38.8693 15 39.8731 14.767 40.6989 14.3011C41.5246 13.8314 42.1534 13.161 42.5852 12.2898C43.017 11.4148 43.233 10.3712 43.233 9.15907C43.233 7.95452 43.0189 6.92043 42.5909 6.0568C42.1629 5.18937 41.5473 4.5246 40.7443 4.06248C39.9413 3.59657 38.9754 3.36362 37.8466 3.36362H34.0966V15ZM37.5966 13.75H35.5057V4.61362H37.7557C38.6648 4.61362 39.4242 4.79733 40.0341 5.16475C40.6439 5.52839 41.1023 6.05112 41.4091 6.73293C41.7159 7.41096 41.8693 8.21968 41.8693 9.15907C41.8693 10.106 41.714 10.9223 41.4034 11.6079C41.0928 12.2935 40.6212 12.8219 39.9886 13.1932C39.3561 13.5644 38.5587 13.75 37.5966 13.75ZM49.7898 3.36362H45.1989V15H47.6591V11.2273H49.7273C50.6212 11.2273 51.3826 11.0625 52.0114 10.7329C52.6439 10.4034 53.1269 9.94316 53.4602 9.35225C53.7936 8.76134 53.9602 8.07952 53.9602 7.3068C53.9602 6.53407 53.7955 5.85225 53.4659 5.26134C53.1402 4.66665 52.6667 4.20263 52.0455 3.8693C51.4242 3.53218 50.6723 3.36362 49.7898 3.36362ZM47.6591 9.25566H49.3295C49.803 9.25566 50.1932 9.17422 50.5 9.01134C50.8106 8.84468 51.0417 8.61551 51.1932 8.32384C51.3485 8.02839 51.4261 7.68937 51.4261 7.3068C51.4261 6.92043 51.3485 6.58331 51.1932 6.29543C51.0417 6.00377 50.8106 5.77839 50.5 5.6193C50.1894 5.45642 49.7955 5.37498 49.3182 5.37498H47.6591V9.25566ZM53.5838 15H56.2202L57.0834 12.3466H61.2848L62.1463 15H64.7827L60.7713 3.36362H57.6009L53.5838 15ZM60.6612 10.4261L59.2315 6.02271H59.1406L57.7081 10.4261H60.6612ZM67.0696 3.36362H64.3139L68.5582 10.8863V15H71.0014V10.8863L75.2457 3.36362H72.4901L69.8366 8.37498H69.723L67.0696 3.36362ZM79.6236 3.36362H76.5895V15H78.9759V7.39771H79.0724L82.0838 14.9432H83.7088L86.7202 7.42612H86.8168V15H89.2031V3.36362H86.169L82.9645 11.1818H82.8281L79.6236 3.36362ZM99.071 3.36362H91.2301V15H99.0938V12.9716H93.6903V10.1932H98.6676V8.16475H93.6903V5.39202H99.071V3.36362ZM108.635 15H110.76V3.36362H108.311V10.6818H108.209L103.186 3.36362H101.027V15H103.487V7.67612H103.572L108.635 15ZM112.349 3.36362V5.39202H115.912V15H118.344V5.39202H121.906V3.36362H112.349Z" fill="white"/>
</svg>
