<svg width="155" height="20" viewBox="0 0 155 20" fill="none" xmlns="http://www.w3.org/2000/svg">
<path d="M10.449 11.194C10.323 11.194 10.224 11.176 10.152 11.14C9.99 11.068 9.909 11.032 9.909 11.032C9.909 11.014 9.99 10.951 10.152 10.843C10.278 10.771 10.422 10.744 10.584 10.762C10.764 10.78 10.89 10.78 10.962 10.762C11.394 10.672 11.916 10.546 12.528 10.384C13.14 10.222 13.851 9.898 14.661 9.412L15.714 8.791C15.804 8.737 15.867 8.746 15.903 8.818C15.867 8.836 15.849 8.881 15.849 8.953C15.975 8.953 16.047 8.908 16.065 8.818C16.101 8.71 16.137 8.611 16.173 8.521H16.2L16.794 8.143C16.884 8.125 16.965 8.134 17.037 8.17C17.127 8.206 17.208 8.197 17.28 8.143C17.244 8.071 17.208 8.026 17.172 8.008C17.136 7.972 17.154 7.927 17.226 7.873L17.334 7.792C17.478 7.702 17.604 7.639 17.712 7.603C17.838 7.549 17.928 7.45 17.982 7.306C18.342 6.982 18.648 6.658 18.9 6.334C19.152 6.01 19.278 5.704 19.278 5.416C19.278 5.11 19.107 4.849 18.765 4.633C18.441 4.399 17.856 4.228 17.01 4.12L16.794 4.093C16.668 4.075 16.551 4.057 16.443 4.039C16.335 4.021 16.227 3.985 16.119 3.931C16.137 4.003 16.101 4.039 16.011 4.039C15.759 4.021 15.507 4.012 15.255 4.012C15.003 3.994 14.76 3.985 14.526 3.985C14.13 3.985 13.761 3.994 13.419 4.012C13.095 4.03 12.861 4.048 12.717 4.066L11.826 4.174C11.718 4.138 11.61 4.156 11.502 4.228H11.475C11.349 4.228 11.223 4.246 11.097 4.282C10.971 4.3 10.836 4.327 10.692 4.363C10.62 4.381 10.539 4.399 10.449 4.417C10.359 4.417 10.269 4.435 10.179 4.471L9.639 4.579C9.513 4.669 9.351 4.714 9.153 4.714H9.126L8.613 4.849H8.586C8.514 4.849 8.451 4.813 8.397 4.741C8.343 4.651 8.307 4.57 8.289 4.498C8.271 4.606 8.244 4.723 8.208 4.849C8.172 4.975 8.109 5.038 8.019 5.038L7.263 5.281C7.191 5.299 7.11 5.308 7.02 5.308C6.93 5.308 6.84 5.308 6.75 5.308C6.66 5.308 6.588 5.317 6.534 5.335C6.48 5.353 6.444 5.398 6.426 5.47C6.426 5.524 6.399 5.569 6.345 5.605C6.273 5.677 6.183 5.731 6.075 5.767C5.967 5.785 5.868 5.812 5.778 5.848H5.751C5.715 5.848 5.661 5.83 5.589 5.794C5.535 5.758 5.49 5.749 5.454 5.767C5.436 5.785 5.418 5.83 5.4 5.902C5.382 5.974 5.355 6.019 5.319 6.037V6.064C5.211 6.1 5.094 6.145 4.968 6.199C4.842 6.253 4.725 6.307 4.617 6.361C4.509 6.415 4.383 6.478 4.239 6.55C4.113 6.604 4.005 6.64 3.915 6.658C3.879 6.658 3.861 6.622 3.861 6.55C3.879 6.478 3.87 6.46 3.834 6.496C3.726 6.55 3.618 6.649 3.51 6.793C3.402 6.937 3.303 7.036 3.213 7.09C3.123 7.162 3.024 7.198 2.916 7.198C2.826 7.198 2.736 7.234 2.646 7.306C2.592 7.36 2.538 7.45 2.484 7.576C2.448 7.684 2.403 7.765 2.349 7.819C2.205 7.963 2.061 8.134 1.917 8.332C1.899 8.368 1.872 8.404 1.836 8.44C1.8 8.476 1.782 8.521 1.782 8.575H1.755C1.647 8.791 1.593 8.998 1.593 9.196C1.593 9.592 1.737 9.88 2.025 10.06C2.331 10.24 2.673 10.375 3.051 10.465C3.123 10.483 3.186 10.51 3.24 10.546C3.312 10.582 3.384 10.591 3.456 10.573C3.528 10.537 3.591 10.519 3.645 10.519C3.735 10.519 3.807 10.555 3.861 10.627L4.266 10.708C4.482 10.762 4.59 10.816 4.59 10.87C4.59 10.906 4.536 10.942 4.428 10.978C4.338 10.996 4.248 11.005 4.158 11.005C3.834 11.005 3.438 10.942 2.97 10.816C2.502 10.672 2.079 10.465 1.701 10.195C1.323 9.925 1.107 9.574 1.053 9.142C1.053 9.124 1.026 9.079 0.972 9.007C0.936 8.935 0.909 8.872 0.891 8.818C0.837 8.656 0.81 8.494 0.81 8.332C0.81 8.026 0.873 7.738 0.999 7.468C1.143 7.198 1.332 6.946 1.566 6.712C1.656 6.622 1.737 6.559 1.809 6.523C1.899 6.487 1.998 6.433 2.106 6.361C2.214 6.289 2.268 6.226 2.268 6.172C2.268 6.118 2.322 6.055 2.43 5.983C2.574 5.893 2.772 5.785 3.024 5.659C3.294 5.533 3.501 5.434 3.645 5.362C3.753 5.362 3.852 5.317 3.942 5.227C4.302 5.065 4.68 4.921 5.076 4.795C5.472 4.651 5.868 4.516 6.264 4.39C6.336 4.372 6.399 4.354 6.453 4.336C6.507 4.318 6.561 4.309 6.615 4.309C6.687 4.309 6.759 4.336 6.831 4.39C6.831 4.354 6.822 4.327 6.804 4.309C6.804 4.273 6.822 4.246 6.858 4.228C7.308 4.084 7.749 3.949 8.181 3.823C8.631 3.679 9.072 3.607 9.504 3.607H9.531C9.567 3.607 9.603 3.598 9.639 3.58C9.693 3.562 9.738 3.553 9.774 3.553H9.801L9.99 3.526C10.098 3.58 10.206 3.562 10.314 3.472C10.8 3.382 11.25 3.319 11.664 3.283C12.078 3.229 12.429 3.202 12.717 3.202H12.825C12.915 3.202 12.987 3.193 13.041 3.175H13.311C13.365 3.157 13.419 3.157 13.473 3.175C13.545 3.175 13.599 3.175 13.635 3.175H13.662C13.878 3.175 14.103 3.184 14.337 3.202C14.589 3.202 14.841 3.202 15.093 3.202H15.12C15.192 3.202 15.246 3.229 15.282 3.283C15.336 3.319 15.399 3.301 15.471 3.229C15.957 3.247 16.443 3.301 16.929 3.391C17.289 3.445 17.703 3.553 18.171 3.715C18.657 3.877 19.08 4.129 19.44 4.471C19.8 4.795 19.98 5.254 19.98 5.848C19.98 6.136 19.944 6.397 19.872 6.631C19.818 6.847 19.71 7.045 19.548 7.225C19.404 7.405 19.233 7.585 19.035 7.765C18.981 7.819 18.927 7.882 18.873 7.954C18.819 8.026 18.756 8.089 18.684 8.143C18.666 8.161 18.63 8.179 18.576 8.197C18.54 8.197 18.504 8.206 18.468 8.224C18.432 8.26 18.396 8.287 18.36 8.305C18.324 8.323 18.279 8.35 18.225 8.386C17.631 8.782 17.118 9.079 16.686 9.277C16.272 9.457 15.723 9.664 15.039 9.898C14.823 9.97 14.67 10.015 14.58 10.033C14.49 10.033 14.418 10.051 14.364 10.087C13.914 10.213 13.401 10.393 12.825 10.627C12.249 10.861 11.754 11.014 11.34 11.086C11.304 11.104 11.187 11.131 10.989 11.167C10.809 11.185 10.629 11.194 10.449 11.194ZM18.522 19.267C18.504 19.267 18.441 19.267 18.333 19.267C18.225 19.267 18.162 19.258 18.144 19.24C18.072 19.204 18.045 19.15 18.063 19.078C18.081 19.006 18.054 18.97 17.982 18.97C17.91 18.97 17.865 18.997 17.847 19.051C17.829 19.123 17.775 19.159 17.685 19.159H17.658C17.568 19.159 17.487 19.114 17.415 19.024C17.361 18.934 17.298 18.907 17.226 18.943C17.118 18.997 17.028 19.024 16.956 19.024C16.83 19.024 16.731 18.979 16.659 18.889C16.587 18.799 16.488 18.718 16.362 18.646C16.344 18.646 16.308 18.655 16.254 18.673C16.218 18.691 16.182 18.691 16.146 18.673C16.128 18.655 15.984 18.574 15.714 18.43C15.444 18.304 15.174 18.169 14.904 18.025C14.634 17.881 14.472 17.791 14.418 17.755C14.364 17.629 14.31 17.557 14.256 17.539C14.22 17.521 14.139 17.512 14.013 17.512C13.941 17.458 13.842 17.395 13.716 17.323C13.608 17.269 13.536 17.197 13.5 17.107C13.266 17.017 13.059 16.909 12.879 16.783C12.699 16.657 12.51 16.513 12.312 16.351C12.276 16.315 12.231 16.288 12.177 16.27C12.123 16.252 12.078 16.225 12.042 16.189L11.313 15.649C11.277 15.541 11.142 15.424 10.908 15.298C10.674 15.154 10.512 15.019 10.422 14.893C10.404 14.875 10.395 14.857 10.395 14.839C10.395 14.749 10.35 14.704 10.26 14.704C10.206 14.704 10.152 14.704 10.098 14.704C10.044 14.704 10.017 14.668 10.017 14.596C9.963 14.47 9.828 14.326 9.612 14.164C9.396 13.984 9.198 13.804 9.018 13.624C8.838 13.444 8.775 13.291 8.829 13.165C8.757 13.147 8.685 13.138 8.613 13.138C8.541 13.138 8.487 13.111 8.451 13.057C8.379 12.913 8.289 12.796 8.181 12.706C8.127 12.67 8.073 12.616 8.019 12.544L7.884 12.814C7.812 12.922 7.74 13.048 7.668 13.192C7.596 13.336 7.515 13.489 7.425 13.651L7.182 14.137C7.164 14.191 7.137 14.218 7.101 14.218C7.083 14.2 7.056 14.191 7.02 14.191C7.056 14.263 7.074 14.326 7.074 14.38C7.074 14.524 6.993 14.677 6.831 14.839C6.597 15.379 6.381 15.892 6.183 16.378C5.985 16.864 5.832 17.314 5.724 17.728C5.688 17.872 5.634 17.944 5.562 17.944C5.436 17.944 5.373 17.809 5.373 17.539C5.373 17.287 5.472 16.891 5.67 16.351L5.643 16.378C5.625 16.378 5.562 16.396 5.454 16.432C5.346 16.468 5.274 16.477 5.238 16.459C5.004 16.459 4.887 16.378 4.887 16.216C4.887 15.784 4.977 15.334 5.157 14.866L5.859 13.03C5.895 12.976 5.913 12.922 5.913 12.868C5.931 12.814 5.949 12.76 5.967 12.706L5.994 12.679V12.652L6.102 12.085C6.138 11.923 6.156 11.779 6.156 11.653C6.174 11.527 6.183 11.374 6.183 11.194C6.183 11.14 6.21 11.104 6.264 11.086C6.264 10.96 6.273 10.843 6.291 10.735C6.309 10.609 6.318 10.483 6.318 10.357V10.222C6.3 10.204 6.291 10.168 6.291 10.114C6.291 10.078 6.282 10.042 6.264 10.006C6.264 9.97 6.264 9.934 6.264 9.898C6.264 9.88 6.264 9.871 6.264 9.871C6.282 9.853 6.291 9.835 6.291 9.817C6.327 9.601 6.39 9.403 6.48 9.223C6.588 9.043 6.705 8.998 6.831 9.088C6.867 9.106 6.93 9.214 7.02 9.412C7.128 9.61 7.218 9.754 7.29 9.844C7.362 10.024 7.452 10.195 7.56 10.357C7.668 10.501 7.758 10.663 7.83 10.843C7.884 10.933 7.911 11.005 7.911 11.059C7.911 11.095 7.974 11.131 8.1 11.167C8.622 10.231 9.144 9.34 9.666 8.494C10.206 7.63 10.71 6.964 11.178 6.496L11.259 6.442L11.34 6.307C11.34 6.307 11.358 6.298 11.394 6.28C11.43 6.262 11.457 6.271 11.475 6.307C11.475 6.325 11.457 6.361 11.421 6.415C11.403 6.469 11.394 6.505 11.394 6.523C11.448 6.613 11.511 6.622 11.583 6.55C11.601 6.514 11.601 6.433 11.583 6.307C11.565 6.181 11.565 6.118 11.583 6.118C11.619 6.1 11.637 6.1 11.637 6.118C11.655 6.136 11.673 6.145 11.691 6.145C11.727 6.145 11.745 6.118 11.745 6.064C11.745 6.01 11.754 5.974 11.772 5.956C11.97 5.884 12.15 5.848 12.312 5.848C12.402 5.848 12.528 5.893 12.69 5.983C12.87 6.073 12.96 6.199 12.96 6.361C12.96 6.451 12.915 6.559 12.825 6.685C12.807 6.703 12.789 6.739 12.771 6.793C12.753 6.829 12.726 6.865 12.69 6.901C12.672 6.919 12.654 6.928 12.636 6.928C12.636 6.91 12.618 6.91 12.582 6.928C12.564 6.946 12.537 6.955 12.501 6.955C12.483 6.937 12.456 6.928 12.42 6.928C12.384 6.928 12.375 6.955 12.393 7.009C12.429 7.063 12.438 7.099 12.42 7.117C12.402 7.135 12.384 7.135 12.366 7.117C12.348 7.099 12.321 7.108 12.285 7.144C12.267 7.162 12.276 7.18 12.312 7.198C12.366 7.198 12.375 7.216 12.339 7.252C12.231 7.36 12.096 7.477 11.934 7.603C11.79 7.711 11.646 7.819 11.502 7.927C11.484 7.945 11.466 7.945 11.448 7.927C11.43 7.891 11.412 7.882 11.394 7.9L11.205 8.17C11.025 8.35 10.845 8.539 10.665 8.737C10.485 8.935 10.296 9.16 10.098 9.412C10.044 9.52 9.981 9.619 9.909 9.709C9.837 9.799 9.738 9.835 9.612 9.817C9.612 9.835 9.63 9.862 9.666 9.898C9.702 9.916 9.702 9.952 9.666 10.006C9.27 10.546 8.901 11.104 8.559 11.68L9.126 12.382C9.18 12.454 9.207 12.535 9.207 12.625C9.207 12.697 9.225 12.742 9.261 12.76C9.297 12.76 9.324 12.751 9.342 12.733C9.378 12.715 9.405 12.706 9.423 12.706C9.477 12.706 9.522 12.751 9.558 12.841C9.612 12.913 9.666 12.976 9.72 13.03C9.792 13.102 9.864 13.174 9.936 13.246C10.026 13.318 10.116 13.399 10.206 13.489V13.516C10.278 13.57 10.395 13.669 10.557 13.813C10.719 13.957 10.872 14.101 11.016 14.245C11.16 14.371 11.241 14.47 11.259 14.542C11.295 14.614 11.349 14.659 11.421 14.677C11.493 14.695 11.556 14.722 11.61 14.758C11.754 14.866 11.898 14.974 12.042 15.082C12.204 15.19 12.357 15.307 12.501 15.433C12.555 15.469 12.573 15.505 12.555 15.541C12.555 15.577 12.564 15.613 12.582 15.649C12.618 15.667 12.681 15.694 12.771 15.73C12.879 15.748 12.96 15.775 13.014 15.811C13.428 16.081 13.842 16.342 14.256 16.594C14.67 16.864 15.102 17.116 15.552 17.35C16.02 17.584 16.497 17.791 16.983 17.971C17.469 18.151 17.982 18.241 18.522 18.241C18.954 18.241 19.368 18.16 19.764 17.998C20.178 17.836 20.385 17.539 20.385 17.107C20.385 16.963 20.358 16.81 20.304 16.648C20.286 16.558 20.25 16.459 20.196 16.351C20.16 16.243 20.097 16.162 20.007 16.108C19.953 16 19.854 15.928 19.71 15.892C19.62 15.802 19.539 15.712 19.467 15.622C19.395 15.514 19.287 15.469 19.143 15.487C19.089 15.433 19.062 15.379 19.062 15.325C19.062 15.253 19.089 15.199 19.143 15.163C19.215 15.109 19.296 15.1 19.386 15.136C19.512 15.208 19.611 15.307 19.683 15.433C19.773 15.541 19.89 15.604 20.034 15.622L20.169 15.757C20.223 15.847 20.277 15.919 20.331 15.973C20.403 16.027 20.466 16.099 20.52 16.189C20.574 16.261 20.628 16.36 20.682 16.486C20.754 16.63 20.799 16.747 20.817 16.837C20.853 16.909 20.862 16.981 20.844 17.053C20.844 17.125 20.871 17.206 20.925 17.296C20.961 17.854 20.781 18.304 20.385 18.646C19.989 19.006 19.53 19.204 19.008 19.24C18.954 19.204 18.9 19.177 18.846 19.159C18.81 19.141 18.774 19.132 18.738 19.132C18.684 19.132 18.612 19.177 18.522 19.267ZM6.021 15.487C6.057 15.505 6.075 15.505 6.075 15.487C6.093 15.451 6.102 15.433 6.102 15.433C6.138 15.379 6.156 15.325 6.156 15.271C6.156 15.199 6.165 15.136 6.183 15.082C6.507 14.272 6.921 13.39 7.425 12.436C7.461 12.364 7.497 12.346 7.533 12.382C7.587 12.4 7.623 12.391 7.641 12.355C7.677 12.319 7.686 12.274 7.668 12.22C7.668 12.166 7.668 12.121 7.668 12.085C7.65 12.049 7.623 12.022 7.587 12.004C7.551 11.986 7.524 11.959 7.506 11.923C7.434 11.725 7.335 11.599 7.209 11.545C7.101 11.473 7.02 11.365 6.966 11.221C6.894 11.059 6.822 10.942 6.75 10.87C6.696 10.78 6.624 10.672 6.534 10.546L6.453 11.464C6.435 11.644 6.408 11.851 6.372 12.085C6.354 12.319 6.309 12.535 6.237 12.733C6.219 12.787 6.21 12.868 6.21 12.976V13.273C6.21 13.309 6.201 13.354 6.183 13.408C6.183 13.462 6.183 13.516 6.183 13.57L6.129 14.11C6.111 14.29 6.084 14.479 6.048 14.677C6.012 14.857 5.994 15.028 5.994 15.19C5.994 15.334 6.003 15.433 6.021 15.487ZM24.6491 7.576C24.5951 7.576 24.5411 7.558 24.4871 7.522C24.4511 7.486 24.3971 7.441 24.3251 7.387C24.2891 7.369 24.2441 7.351 24.1901 7.333C24.1541 7.297 24.1361 7.243 24.1361 7.171C24.1181 7.153 24.0821 7.144 24.0281 7.144C23.9381 7.144 23.8931 7.081 23.8931 6.955C23.8931 6.811 23.9651 6.712 24.1091 6.658L24.2441 6.55V6.577L24.3521 6.442H24.4061C24.5141 6.442 24.5861 6.388 24.6221 6.28C24.6761 6.172 24.7841 6.1 24.9461 6.064C25.0541 6.028 25.1441 6.037 25.2161 6.091C25.2881 6.145 25.3781 6.172 25.4861 6.172C25.5941 6.172 25.7111 6.136 25.8371 6.064L26.2421 5.983C26.2961 5.983 26.3231 6.001 26.3231 6.037C26.3231 6.073 26.2691 6.118 26.1611 6.172C26.0711 6.226 26.0081 6.271 25.9721 6.307L25.9451 6.334L25.9181 6.388L25.8101 6.523C25.7021 6.649 25.5761 6.802 25.4321 6.982C25.3061 7.144 25.1711 7.279 25.0271 7.387C24.8651 7.513 24.7391 7.576 24.6491 7.576ZM20.5451 16.081C20.4371 16.081 20.3831 16.018 20.3831 15.892C20.3831 15.802 20.4101 15.694 20.4641 15.568C20.6081 15.262 20.7701 14.83 20.9501 14.272C21.1481 13.714 21.3911 13.237 21.6791 12.841C21.8771 12.445 22.0571 12.058 22.2191 11.68C22.3991 11.284 22.5701 10.888 22.7321 10.492C22.7321 10.492 22.7141 10.483 22.6781 10.465C22.6601 10.429 22.6511 10.393 22.6511 10.357C22.5431 10.285 22.4261 10.186 22.3001 10.06C22.1921 9.916 22.1831 9.772 22.2731 9.628C22.3091 9.592 22.3361 9.574 22.3541 9.574C22.3721 9.574 22.3811 9.574 22.3811 9.574C22.3811 9.556 22.3721 9.547 22.3541 9.547C22.3541 9.529 22.3541 9.52 22.3541 9.52C22.3541 9.448 22.3901 9.403 22.4621 9.385C22.5341 9.367 22.5701 9.34 22.5701 9.304C22.6061 9.052 22.8221 8.863 23.2181 8.737C23.6141 8.611 23.9651 8.548 24.2711 8.548C24.5771 8.548 24.7301 8.593 24.7301 8.683C24.7301 8.719 24.6761 8.782 24.5681 8.872C24.5141 8.908 24.4241 8.989 24.2981 9.115C24.1721 9.241 24.0551 9.394 23.9471 9.574L23.7311 9.898C23.7131 9.934 23.6861 9.979 23.6501 10.033C23.6321 10.069 23.6051 10.105 23.5691 10.141C23.2811 10.663 23.0471 11.104 22.8671 11.464C22.6871 11.824 22.4711 12.283 22.2191 12.841C22.1831 12.949 22.1651 13.021 22.1651 13.057C22.1651 13.183 22.2371 13.246 22.3811 13.246C22.4891 13.246 22.5971 13.219 22.7051 13.165L22.9751 13.057C23.4071 12.661 23.8571 12.328 24.3251 12.058C24.3431 12.058 24.3521 12.058 24.3521 12.058C24.3701 12.04 24.3881 12.031 24.4061 12.031C24.4601 12.031 24.4961 12.067 24.5141 12.139C24.5321 12.193 24.5141 12.238 24.4601 12.274C23.9381 12.562 23.4521 12.931 23.0021 13.381C22.9841 13.417 22.9661 13.453 22.9481 13.489C22.9301 13.525 22.9031 13.561 22.8671 13.597C22.8311 13.633 22.7771 13.696 22.7051 13.786C22.6511 13.876 22.6241 13.93 22.6241 13.948C22.6061 14.002 22.5791 14.02 22.5431 14.002C22.5251 13.984 22.4711 14.011 22.3811 14.083C22.3631 14.101 22.3451 14.137 22.3271 14.191C22.3271 14.245 22.3181 14.29 22.3001 14.326C22.2821 14.38 22.2461 14.425 22.1921 14.461C22.1561 14.479 22.1381 14.497 22.1381 14.515C22.1201 14.587 22.0841 14.632 22.0301 14.65C21.9941 14.65 21.9581 14.668 21.9221 14.704C21.9041 14.722 21.9041 14.749 21.9221 14.785C21.9401 14.821 21.9311 14.857 21.8951 14.893C21.8771 14.947 21.8591 14.974 21.8411 14.974C21.8231 14.956 21.7961 14.965 21.7601 15.001C21.6881 15.073 21.6341 15.109 21.5981 15.109C21.4901 15.145 21.4451 15.172 21.4631 15.19C21.4991 15.208 21.5261 15.226 21.5441 15.244C21.5801 15.244 21.5531 15.271 21.4631 15.325C21.4271 15.343 21.3911 15.397 21.3551 15.487C21.3191 15.559 21.2831 15.613 21.2471 15.649C21.1931 15.685 21.1391 15.712 21.0851 15.73C21.0491 15.748 21.0041 15.784 20.9501 15.838C20.7881 16 20.6531 16.081 20.5451 16.081ZM27.5919 16.081C26.9259 16.081 26.4219 15.964 26.0799 15.73C25.7379 15.496 25.5039 15.217 25.3779 14.893C25.2519 14.569 25.2159 14.2 25.2699 13.786L25.3239 13.705C25.3599 13.651 25.3869 13.579 25.4049 13.489C25.4229 13.399 25.4409 13.345 25.4589 13.327L25.6749 13.381C25.7109 13.399 25.7379 13.372 25.7559 13.3C25.7739 13.228 25.7649 13.201 25.7289 13.219C25.6209 13.237 25.5669 13.255 25.5669 13.273C25.5669 13.291 25.5489 13.255 25.5129 13.165L25.5939 13.111L25.5669 13.084C25.5669 13.048 25.5849 13.03 25.6209 13.03L25.5669 12.949C25.5669 12.949 25.6389 12.958 25.7829 12.976C25.9449 12.976 26.0079 12.958 25.9719 12.922C25.9899 12.922 25.9809 12.913 25.9449 12.895C25.9089 12.859 25.8909 12.832 25.8909 12.814C25.8729 12.832 25.8639 12.832 25.8639 12.814C25.8639 12.778 25.8009 12.778 25.6749 12.814C25.6209 12.832 25.5939 12.823 25.5939 12.787C25.5939 12.751 25.5939 12.733 25.5939 12.733C25.6479 12.715 25.7019 12.697 25.7559 12.679C25.8099 12.643 25.8459 12.589 25.8639 12.517C25.8819 12.337 25.8999 12.238 25.9179 12.22C25.9359 12.202 25.9539 12.175 25.9719 12.139C25.9899 12.103 26.0169 12.058 26.0529 12.004C26.0889 11.932 26.1159 11.896 26.1339 11.896C26.1159 11.878 26.1069 11.851 26.1069 11.815C26.1069 11.725 26.1699 11.689 26.2959 11.707C26.4399 11.725 26.4849 11.671 26.4309 11.545C26.3769 11.473 26.4039 11.437 26.5119 11.437L26.4849 11.41C26.5569 11.374 26.6019 11.356 26.6199 11.356C26.6559 11.338 26.6379 11.302 26.5659 11.248L26.6739 11.005C26.6919 10.969 26.7279 10.915 26.7819 10.843C26.8539 10.753 26.9619 10.663 27.1059 10.573C27.1059 10.573 27.0969 10.582 27.0789 10.6C27.0789 10.6 27.0789 10.609 27.0789 10.627H27.1059C27.1599 10.627 27.2589 10.573 27.4029 10.465C27.3849 10.447 27.3489 10.438 27.2949 10.438C27.2589 10.42 27.2319 10.402 27.2139 10.384C27.1959 10.33 27.2859 10.213 27.4839 10.033C27.6819 9.853 27.8979 9.682 28.1319 9.52C28.3659 9.34 28.5099 9.232 28.5639 9.196C28.8339 9.052 29.1309 8.935 29.4549 8.845C29.7969 8.737 30.0939 8.71 30.3459 8.764C30.3999 8.782 30.4809 8.854 30.5889 8.98C30.7149 9.106 30.8049 9.142 30.8589 9.088C31.0209 8.944 31.2099 8.8 31.4259 8.656C31.6419 8.512 31.7679 8.449 31.8039 8.467C31.8939 8.485 31.9839 8.521 32.0739 8.575C32.1639 8.611 32.2089 8.719 32.2089 8.899C32.2089 9.025 32.1999 9.133 32.1819 9.223C32.1639 9.331 32.1189 9.421 32.0469 9.493C31.9749 9.565 31.9029 9.646 31.8309 9.736C31.7589 9.844 31.6239 10.015 31.4259 10.249C31.2459 10.465 31.1109 10.6 31.0209 10.654C30.9669 10.672 30.9039 10.726 30.8319 10.816C30.7779 10.888 30.7059 10.96 30.6159 11.032C30.5439 11.086 30.4539 11.131 30.3459 11.167C30.2559 11.185 30.1929 11.203 30.1569 11.221C30.1209 11.239 30.0579 11.248 29.9679 11.248C29.8959 11.23 29.8779 11.194 29.9139 11.14C29.9319 11.122 29.9319 11.104 29.9139 11.086C29.9139 11.05 29.9139 11.023 29.9139 11.005C29.9319 10.969 29.9589 10.942 29.9949 10.924C30.0309 10.906 30.0579 10.879 30.0759 10.843C30.0939 10.825 30.1389 10.762 30.2109 10.654C30.3009 10.546 30.3459 10.483 30.3459 10.465C30.3279 10.447 30.3279 10.429 30.3459 10.411C30.3639 10.375 30.3729 10.348 30.3729 10.33C30.3909 10.312 30.3999 10.285 30.3999 10.249C30.3999 10.213 30.4179 10.195 30.4539 10.195C30.5259 10.177 30.5619 10.15 30.5619 10.114C30.5619 9.97 30.5709 9.835 30.5889 9.709C30.6249 9.583 30.6159 9.475 30.5619 9.385C30.4899 9.241 30.3549 9.169 30.1569 9.169C29.8869 9.169 29.5719 9.286 29.2119 9.52C28.8519 9.736 28.6089 9.916 28.4829 10.06C27.9069 10.708 27.4389 11.437 27.0789 12.247C26.7189 13.057 26.5749 13.777 26.6469 14.407C26.6829 14.713 26.8089 14.965 27.0249 15.163C27.2409 15.361 27.4839 15.46 27.7539 15.46H28.2129C28.2669 15.46 28.3209 15.46 28.3749 15.46C28.4469 15.442 28.5189 15.424 28.5909 15.406C28.6989 15.37 28.7799 15.352 28.8339 15.352C28.9239 15.262 28.9779 15.262 28.9959 15.352C29.1399 15.28 29.2029 15.253 29.1849 15.271C29.1669 15.289 29.1939 15.289 29.2659 15.271C29.6259 15.181 29.9769 15.028 30.3189 14.812C30.6609 14.596 30.9759 14.38 31.2639 14.164C31.3179 14.128 31.4079 14.074 31.5339 14.002C31.6599 13.93 31.7499 13.876 31.8039 13.84C31.8399 13.786 31.8669 13.741 31.8849 13.705C31.9209 13.651 31.9659 13.615 32.0199 13.597C32.0559 13.543 32.1009 13.489 32.1549 13.435C32.2089 13.363 32.2449 13.318 32.2629 13.3C32.3529 13.264 32.3799 13.237 32.3439 13.219C32.3079 13.183 32.3529 13.138 32.4789 13.084C32.5149 13.066 32.5509 13.057 32.5869 13.057C32.6229 13.057 32.6409 13.075 32.6409 13.111C32.6409 13.147 32.5869 13.246 32.4789 13.408C32.4069 13.534 32.2719 13.696 32.0739 13.894L31.8039 14.164L31.4799 14.326C31.4439 14.362 31.4259 14.398 31.4259 14.434C31.4259 14.452 31.4079 14.479 31.3719 14.515C30.8679 14.965 30.2919 15.343 29.6439 15.649C29.0139 15.937 28.3299 16.081 27.5919 16.081ZM37.8221 16.081C37.7141 16.081 37.6601 16.018 37.6601 15.892C37.6601 15.802 37.6871 15.694 37.7411 15.568C37.8851 15.262 38.0471 14.83 38.2271 14.272C38.4251 13.714 38.6681 13.237 38.9561 12.841C39.1541 12.445 39.3341 12.058 39.4961 11.68C39.6761 11.284 39.8471 10.888 40.0091 10.492C40.0091 10.492 39.9911 10.483 39.9551 10.465C39.9191 10.429 39.9011 10.393 39.9011 10.357C39.8111 10.285 39.7031 10.186 39.5771 10.06C39.4511 9.916 39.4421 9.772 39.5501 9.628C39.5861 9.592 39.6041 9.574 39.6041 9.574C39.6221 9.574 39.6311 9.574 39.6311 9.574C39.6311 9.556 39.6221 9.547 39.6041 9.547C39.6041 9.547 39.6041 9.538 39.6041 9.52L39.5771 9.493C39.5591 9.493 39.5411 9.493 39.5231 9.493C39.5231 9.475 39.5141 9.466 39.4961 9.466C39.4241 9.466 39.3431 9.484 39.2531 9.52C39.1631 9.538 39.0731 9.547 38.9831 9.547C38.8751 9.547 38.7311 9.592 38.5511 9.682C38.3711 9.754 38.2091 9.817 38.0651 9.871C37.9931 9.889 37.9481 9.898 37.9301 9.898C37.9301 9.88 37.8941 9.889 37.8221 9.925C37.8041 9.943 37.8041 9.916 37.8221 9.844C37.8581 9.754 37.8761 9.691 37.8761 9.655C37.8761 9.637 37.8671 9.628 37.8491 9.628C37.8131 9.628 37.7411 9.682 37.6331 9.79C37.5251 9.88 37.4531 9.934 37.4171 9.952C37.3991 9.97 37.3901 9.997 37.3901 10.033C37.4081 10.069 37.4171 10.105 37.4171 10.141C37.4171 10.195 37.3721 10.258 37.2821 10.33C37.1921 10.384 37.1291 10.429 37.0931 10.465C37.0211 10.519 36.9311 10.555 36.8231 10.573C36.7331 10.573 36.6431 10.609 36.5531 10.681C36.4451 10.753 36.3911 10.807 36.3911 10.843C36.4091 10.879 36.3551 10.942 36.2291 11.032C36.0671 11.158 35.8421 11.347 35.5541 11.599C35.2841 11.851 35.0771 12.076 34.9331 12.274C34.5911 12.688 34.2761 13.165 33.9881 13.705C33.7181 14.245 33.5831 14.668 33.5831 14.974C33.5831 15.208 33.6821 15.325 33.8801 15.325C33.9161 15.325 33.9521 15.325 33.9881 15.325C34.0241 15.307 34.0691 15.289 34.1231 15.271L34.8251 14.866L34.9871 14.839V14.812L35.0951 14.893C35.1131 14.875 35.1041 14.848 35.0681 14.812C35.0501 14.758 35.0501 14.731 35.0681 14.731C35.0861 14.731 35.0951 14.74 35.0951 14.758C35.1131 14.758 35.1311 14.758 35.1491 14.758L35.2031 14.677C35.2031 14.677 35.2301 14.686 35.2841 14.704C35.3561 14.704 35.4101 14.686 35.4461 14.65C35.5001 14.632 35.5091 14.605 35.4731 14.569C35.4551 14.533 35.4281 14.506 35.3921 14.488L35.5811 14.326C35.5991 14.29 35.6711 14.254 35.7971 14.218C36.1031 14.02 36.3551 13.786 36.5531 13.516C36.7691 13.228 37.0121 12.967 37.2821 12.733H37.3091L37.6331 12.409L37.6061 12.328L37.9571 11.923H38.0111C38.0291 11.887 38.0651 11.842 38.1191 11.788C38.1911 11.734 38.2361 11.689 38.2541 11.653C38.2901 11.635 38.3711 11.545 38.4971 11.383C38.6411 11.203 38.7761 11.059 38.9021 10.951C39.0461 10.843 39.1271 10.789 39.1451 10.789C39.1631 10.789 39.1721 10.798 39.1721 10.816C39.1721 10.87 39.1451 10.951 39.0911 11.059C39.0551 11.167 39.0191 11.239 38.9831 11.275C38.8571 11.473 38.6951 11.698 38.4971 11.95C38.2991 12.184 38.1821 12.328 38.1461 12.382C37.9301 12.616 37.6691 12.931 37.3631 13.327C37.0571 13.705 36.7241 14.083 36.3641 14.461C36.0041 14.839 35.6441 15.163 35.2841 15.433C34.9421 15.685 34.6181 15.811 34.3121 15.811C34.0241 15.811 33.7181 15.721 33.3941 15.541C33.0701 15.361 32.9081 15.019 32.9081 14.515C32.9081 14.353 32.9261 14.173 32.9621 13.975C33.0161 13.759 33.0971 13.534 33.2051 13.3C33.2051 13.3 33.2231 13.282 33.2591 13.246C33.2951 13.192 33.3221 13.174 33.3401 13.192C33.3761 13.138 33.3851 13.084 33.3671 13.03C33.3671 12.958 33.3671 12.913 33.3671 12.895L33.4211 12.841C33.4571 12.643 33.5921 12.463 33.8261 12.301C34.0601 12.139 34.1861 12.013 34.2041 11.923C34.2221 11.905 34.2311 11.878 34.2311 11.842L34.3391 11.491V11.383H34.4471L34.5281 11.275L34.5551 11.221C34.5191 11.203 34.5281 11.176 34.5821 11.14C34.6541 11.086 34.6901 11.059 34.6901 11.059C34.7081 11.023 34.7261 10.996 34.7441 10.978C34.7801 10.96 34.8071 10.942 34.8251 10.924H35.0141C35.0501 10.87 35.0321 10.843 34.9601 10.843C34.8881 10.843 34.8521 10.843 34.8521 10.843C34.8521 10.825 34.8521 10.816 34.8521 10.816C34.8701 10.798 34.8791 10.78 34.8791 10.762L35.1761 10.519C35.2661 10.447 35.3561 10.384 35.4461 10.33C35.5361 10.276 35.6171 10.213 35.6891 10.141C35.7431 10.141 35.7521 10.168 35.7161 10.222C35.7341 10.258 35.7521 10.258 35.7701 10.222C35.8061 10.186 35.8241 10.168 35.8241 10.168L35.9591 10.141V10.114C35.9591 10.078 35.9681 10.024 35.9861 9.952C36.0041 9.88 36.0131 9.835 36.0131 9.817C36.3911 9.529 36.7871 9.277 37.2011 9.061C37.6151 8.827 38.0201 8.71 38.4161 8.71C38.8841 8.71 39.3071 8.89 39.6851 9.25L39.8201 9.331C39.8381 9.331 39.8471 9.322 39.8471 9.304C39.8831 9.052 40.0901 8.863 40.4681 8.737C40.8641 8.611 41.2151 8.548 41.5211 8.548C41.8451 8.548 42.0071 8.593 42.0071 8.683C42.0071 8.719 41.9531 8.782 41.8451 8.872C41.7911 8.908 41.7011 8.989 41.5751 9.115C41.4491 9.241 41.3231 9.394 41.1971 9.574C41.1791 9.628 41.1521 9.682 41.1161 9.736C41.0801 9.79 41.0441 9.844 41.0081 9.898C40.9901 9.934 40.9631 9.979 40.9271 10.033C40.9091 10.069 40.8821 10.105 40.8461 10.141C40.5401 10.663 40.2971 11.104 40.1171 11.464C39.9371 11.824 39.7211 12.283 39.4691 12.841C39.4331 12.949 39.4151 13.012 39.4151 13.03C39.4151 13.174 39.4961 13.246 39.6581 13.246C39.7661 13.246 39.8741 13.219 39.9821 13.165L40.2521 13.057C40.6841 12.661 41.1341 12.328 41.6021 12.058C41.6201 12.058 41.6291 12.058 41.6291 12.058C41.6471 12.04 41.6651 12.031 41.6831 12.031C41.7371 12.031 41.7731 12.067 41.7911 12.139C41.8091 12.193 41.7911 12.238 41.7371 12.274C41.2151 12.562 40.7291 12.931 40.2791 13.381C40.2611 13.417 40.2431 13.453 40.2251 13.489C40.2071 13.525 40.1801 13.561 40.1441 13.597C40.0901 13.633 40.0361 13.696 39.9821 13.786C39.9281 13.876 39.9011 13.93 39.9011 13.948C39.8831 14.002 39.8561 14.02 39.8201 14.002C39.8021 13.984 39.7481 14.011 39.6581 14.083C39.6401 14.101 39.6221 14.137 39.6041 14.191C39.6041 14.245 39.5951 14.29 39.5771 14.326C39.5411 14.38 39.5051 14.425 39.4691 14.461C39.4331 14.479 39.4151 14.497 39.4151 14.515C39.3971 14.587 39.3611 14.632 39.3071 14.65C39.2711 14.65 39.2351 14.668 39.1991 14.704C39.1811 14.704 39.1721 14.713 39.1721 14.731C39.1721 14.893 39.1541 14.965 39.1181 14.947C39.0821 14.929 39.0461 14.947 39.0101 15.001C38.9741 15.073 38.9291 15.109 38.8751 15.109C38.7671 15.145 38.7221 15.172 38.7401 15.19C38.7761 15.208 38.8031 15.226 38.8211 15.244C38.8571 15.244 38.8301 15.271 38.7401 15.325C38.7041 15.343 38.6681 15.397 38.6321 15.487C38.5961 15.559 38.5601 15.613 38.5241 15.649C38.4701 15.685 38.4161 15.712 38.3621 15.73C38.3081 15.748 38.2631 15.784 38.2271 15.838C38.0651 16 37.9301 16.081 37.8221 16.081ZM42.4784 15.946C42.2984 15.946 42.1094 15.91 41.9114 15.838C41.7134 15.748 41.6414 15.649 41.6954 15.541C41.7674 15.397 41.8484 15.253 41.9384 15.109C42.0464 14.947 42.1454 14.776 42.2354 14.596L42.5324 14.029C42.5684 13.939 42.6044 13.876 42.6404 13.84C42.6944 13.786 42.7394 13.723 42.7754 13.651C42.7934 13.633 42.8024 13.588 42.8024 13.516C42.8024 13.426 42.8384 13.327 42.9104 13.219C43.0004 13.093 43.0634 12.976 43.0994 12.868C43.1174 12.85 43.1354 12.904 43.1534 13.03C43.1714 13.156 43.2164 13.147 43.2884 13.003C43.3064 12.985 43.2974 12.958 43.2614 12.922C43.2434 12.886 43.2344 12.85 43.2344 12.814C43.2344 12.778 43.2434 12.76 43.2614 12.76C43.2974 12.742 43.3154 12.724 43.3154 12.706C43.3334 12.652 43.3154 12.634 43.2614 12.652C43.2254 12.652 43.2074 12.643 43.2074 12.625C43.2434 12.571 43.2794 12.535 43.3154 12.517C43.3694 12.499 43.4054 12.472 43.4234 12.436C43.4234 12.4 43.4054 12.382 43.3694 12.382C43.3514 12.364 43.3514 12.346 43.3694 12.328C43.4594 12.076 43.5584 11.779 43.6664 11.437C43.7744 11.095 43.8554 10.78 43.9094 10.492C43.9094 10.492 43.8914 10.483 43.8554 10.465C43.8194 10.429 43.8014 10.393 43.8014 10.357L43.6124 10.222C43.3964 10.42 43.1624 10.591 42.9104 10.735C42.8924 10.753 42.8564 10.762 42.8024 10.762C42.7304 10.762 42.6854 10.726 42.6674 10.654C42.6494 10.582 42.6764 10.519 42.7484 10.465C42.8384 10.411 42.9104 10.375 42.9644 10.357C43.0184 10.321 43.0814 10.267 43.1534 10.195C43.1894 10.159 43.2074 10.123 43.2074 10.087C43.2254 10.051 43.2434 10.015 43.2614 9.979L43.3694 9.844C43.3694 9.754 43.3874 9.682 43.4234 9.628C43.4594 9.592 43.4864 9.574 43.5044 9.574C43.5224 9.574 43.5314 9.574 43.5314 9.574V9.52C43.5314 9.448 43.5584 9.403 43.6124 9.385C43.6844 9.367 43.7204 9.34 43.7204 9.304C43.7564 9.052 43.9724 8.863 44.3684 8.737C44.7644 8.611 45.1154 8.548 45.4214 8.548C45.7274 8.548 45.8804 8.593 45.8804 8.683C45.8804 8.737 45.8264 8.8 45.7184 8.872C45.6644 8.908 45.5744 8.989 45.4484 9.115C45.3224 9.241 45.2054 9.394 45.0974 9.574L44.9084 9.898L44.7194 10.141C44.5934 10.429 44.4134 10.87 44.1794 11.464C43.9454 12.058 43.7024 12.805 43.4504 13.705C43.5044 13.633 43.6304 13.48 43.8284 13.246C44.0264 13.012 44.2604 12.742 44.5304 12.436C44.8004 12.13 45.0614 11.842 45.3134 11.572C45.5654 11.284 45.7724 11.059 45.9344 10.897L46.0694 10.816C46.1054 10.78 46.1414 10.735 46.1774 10.681C46.2314 10.609 46.2764 10.555 46.3124 10.519C46.3304 10.501 46.3394 10.537 46.3394 10.627C46.3574 10.699 46.3754 10.726 46.3934 10.708C46.4654 10.654 46.5014 10.573 46.5014 10.465C46.5194 10.357 46.5644 10.285 46.6364 10.249C46.8344 10.087 47.1044 9.862 47.4464 9.574C47.8064 9.268 48.1754 9.088 48.5534 9.034C48.5894 8.998 48.6434 8.989 48.7154 9.007C48.8054 9.007 48.8684 8.998 48.9044 8.98C48.9404 8.98 48.9674 8.971 48.9854 8.953C49.0034 8.935 49.0484 8.926 49.1204 8.926C49.1564 8.926 49.2284 8.953 49.3364 9.007C49.4624 9.061 49.5344 9.133 49.5524 9.223C49.6604 9.295 49.7144 9.403 49.7144 9.547C49.7144 9.799 49.5794 9.988 49.3094 10.114C49.2194 10.204 49.1204 10.294 49.0124 10.384C48.9044 10.456 48.7964 10.537 48.6884 10.627C48.6524 10.663 48.6254 10.681 48.6074 10.681C48.4814 10.789 48.3734 10.906 48.2834 11.032C48.1934 11.158 48.1484 11.32 48.1484 11.518C48.1484 11.536 48.1664 11.563 48.2024 11.599C48.2384 11.617 48.2474 11.635 48.2294 11.653C48.2834 11.707 48.3644 11.743 48.4724 11.761C48.5804 11.761 48.6884 11.761 48.7964 11.761C48.9764 11.761 49.2464 11.689 49.6064 11.545H49.6604C49.6784 11.545 49.6874 11.554 49.6874 11.572C49.6874 11.608 49.6514 11.671 49.5794 11.761C49.5074 11.833 49.4264 11.887 49.3364 11.923C49.1384 11.995 48.9314 12.04 48.7154 12.058C48.4994 12.058 48.3464 12.058 48.2564 12.058C47.9324 12.058 47.7254 11.995 47.6354 11.869C47.5634 11.743 47.4914 11.59 47.4194 11.41V11.275L47.5544 11.14C47.5364 11.086 47.5094 11.032 47.4734 10.978C47.4374 10.924 47.4194 10.861 47.4194 10.789C47.4194 10.609 47.4914 10.402 47.6354 10.168C47.4374 10.222 47.1854 10.375 46.8794 10.627C46.5914 10.861 46.2944 11.14 45.9884 11.464C45.6824 11.77 45.4034 12.076 45.1514 12.382C44.8994 12.67 44.7014 12.904 44.5574 13.084C44.5034 13.156 44.4404 13.201 44.3684 13.219C44.3144 13.219 44.2694 13.246 44.2334 13.3C44.2154 13.318 44.2334 13.327 44.2874 13.327C44.3594 13.327 44.3864 13.336 44.3684 13.354C44.1344 13.714 43.8824 14.11 43.6124 14.542C43.3604 14.974 43.1084 15.397 42.8564 15.811C42.8024 15.901 42.6764 15.946 42.4784 15.946ZM53.0326 17.701C52.9786 17.611 52.9516 17.494 52.9516 17.35C52.9516 17.278 52.9696 17.188 53.0056 17.08C53.0236 17.026 53.0596 16.873 53.1136 16.621C53.1856 16.387 53.2576 16.153 53.3296 15.919C53.4016 15.667 53.4466 15.523 53.4646 15.487C53.4826 15.487 53.5366 15.352 53.6266 15.082C53.7346 14.794 53.8516 14.488 53.9776 14.164C54.1036 13.84 54.2026 13.633 54.2746 13.543C54.3466 13.345 54.4636 13.102 54.6256 12.814C54.8056 12.508 54.9676 12.148 55.1116 11.734L55.0576 11.788C54.8416 12.004 54.5626 12.337 54.2206 12.787C53.8966 13.219 53.5366 13.669 53.1406 14.137C52.7446 14.587 52.3396 14.983 51.9256 15.325C51.5296 15.649 51.1516 15.811 50.7916 15.811C50.5036 15.811 50.1706 15.712 49.7926 15.514C49.4146 15.298 49.2256 14.92 49.2256 14.38C49.2256 14.074 49.3066 13.723 49.4686 13.327C49.4686 13.291 49.4776 13.246 49.4956 13.192C49.5316 13.138 49.5676 13.102 49.6036 13.084C49.6396 13.066 49.6756 13.075 49.7116 13.111C49.7476 13.129 49.7746 13.12 49.7926 13.084C49.8106 13.084 49.8466 13.075 49.9006 13.057C49.9546 13.021 49.9726 12.994 49.9546 12.976C49.9366 12.958 49.8916 12.949 49.8196 12.949C49.7476 12.931 49.7116 12.913 49.7116 12.895C49.6936 12.859 49.6936 12.832 49.7116 12.814C49.7296 12.778 49.7386 12.742 49.7386 12.706C49.7386 12.652 49.7566 12.616 49.7926 12.598C49.8466 12.562 49.8826 12.526 49.9006 12.49C49.9006 12.4 49.9546 12.337 50.0626 12.301C50.0806 12.283 50.1076 12.274 50.1436 12.274C50.2156 12.274 50.2336 12.256 50.1976 12.22C50.1616 12.166 50.1436 12.112 50.1436 12.058C50.1616 12.022 50.1886 11.986 50.2246 11.95C50.2786 11.896 50.3146 11.86 50.3326 11.842C50.3686 11.806 50.4136 11.743 50.4676 11.653C50.5396 11.545 50.5936 11.482 50.6296 11.464C50.6656 11.464 50.6836 11.482 50.6836 11.518C50.7016 11.536 50.7196 11.536 50.7376 11.518C50.7736 11.482 50.7826 11.437 50.7646 11.383C50.7466 11.329 50.7556 11.284 50.7916 11.248C50.8276 11.212 50.8816 11.149 50.9536 11.059C51.0256 10.969 51.0796 10.915 51.1156 10.897C51.1516 10.861 51.1696 10.861 51.1696 10.897C51.1696 10.915 51.1786 10.924 51.1966 10.924C51.2326 10.924 51.2596 10.888 51.2776 10.816C51.2956 10.726 51.3136 10.672 51.3316 10.654C51.3676 10.636 51.4126 10.636 51.4666 10.654C51.5386 10.654 51.5836 10.645 51.6016 10.627C51.6376 10.609 51.6376 10.582 51.6016 10.546C51.5836 10.492 51.5836 10.447 51.6016 10.411C51.6016 10.375 51.6196 10.348 51.6556 10.33C51.6916 10.312 51.7186 10.294 51.7366 10.276C51.9346 10.096 52.1326 9.925 52.3306 9.763C52.5466 9.601 52.7626 9.457 52.9786 9.331C53.0146 9.313 53.0506 9.295 53.0866 9.277C53.1406 9.259 53.1856 9.25 53.2216 9.25C53.2576 9.25 53.2846 9.259 53.3026 9.277C53.3206 9.295 53.3386 9.304 53.3566 9.304C53.3926 9.268 53.4016 9.241 53.3836 9.223C53.3836 9.187 53.3926 9.151 53.4106 9.115C53.4286 9.079 53.4646 9.052 53.5186 9.034C53.5726 9.016 53.6086 8.998 53.6266 8.98C53.8426 8.89 54.0586 8.818 54.2746 8.764C54.4906 8.692 54.6976 8.656 54.8956 8.656C55.2016 8.656 55.4986 8.728 55.7866 8.872C55.8946 8.872 56.0206 8.89 56.1646 8.926L56.3266 8.656C56.3626 8.584 56.4256 8.548 56.5156 8.548H56.5966C56.6506 8.548 56.6776 8.521 56.6776 8.467C56.6776 8.413 56.6506 8.296 56.5966 8.116C56.5966 7.972 56.6596 7.891 56.7856 7.873L56.8396 7.846C56.9116 7.468 57.0106 7.216 57.1366 7.09L57.3256 6.874C57.5236 6.64 57.6766 6.388 57.7846 6.118C57.8206 6.046 57.8656 5.983 57.9196 5.929C57.9916 5.875 58.0456 5.812 58.0816 5.74C58.1176 5.686 58.1266 5.632 58.1086 5.578C58.0906 5.506 58.0906 5.452 58.1086 5.416C58.4146 4.93 58.7566 4.498 59.1346 4.12C59.1706 4.03 59.2156 3.94 59.2696 3.85C59.3416 3.76 59.4136 3.67 59.4856 3.58C59.5756 3.454 59.6836 3.364 59.8096 3.31C59.9356 3.256 60.0616 3.166 60.1876 3.04C60.2236 3.004 60.2326 2.95 60.2146 2.878C60.2146 2.788 60.2326 2.725 60.2686 2.689C60.8446 2.167 61.4926 1.735 62.2126 1.393C62.9326 1.033 63.4996 0.852999 63.9136 0.852999C64.0576 0.852999 64.1926 0.870999 64.3186 0.907C64.4446 0.924999 64.5796 0.933999 64.7236 0.933999H64.7776C64.8676 0.933999 64.9486 0.960999 65.0206 1.015C65.1106 1.051 65.2006 1.078 65.2906 1.096C65.3626 1.096 65.4526 1.114 65.5606 1.15C65.6506 1.186 65.7046 1.24 65.7226 1.312C65.7406 1.384 65.7316 1.438 65.6956 1.474C65.6776 1.492 65.6506 1.492 65.6146 1.474C65.5786 1.456 65.5336 1.447 65.4796 1.447C65.4436 1.429 65.4076 1.411 65.3716 1.393C65.3356 1.357 65.2996 1.33 65.2636 1.312C65.1916 1.312 65.1106 1.33 65.0206 1.366C64.9486 1.384 64.8766 1.384 64.8046 1.366C64.6246 1.366 64.5076 1.348 64.4536 1.312C64.3996 1.276 64.3006 1.276 64.1566 1.312C64.1386 1.312 64.0846 1.321 63.9946 1.339C63.9046 1.357 63.8416 1.366 63.8056 1.366C63.1756 1.528 62.6266 1.798 62.1586 2.176C61.7086 2.554 61.3036 2.977 60.9436 3.445C60.6016 3.895 60.2686 4.336 59.9446 4.768C59.8726 4.912 59.8006 5.056 59.7286 5.2C59.6566 5.344 59.5846 5.461 59.5126 5.551C59.4946 5.569 59.4766 5.56 59.4586 5.524C59.4406 5.488 59.4226 5.488 59.4046 5.524C59.3506 5.578 59.3146 5.668 59.2966 5.794C59.2786 5.92 59.2426 6.019 59.1886 6.091C59.1706 6.109 59.1436 6.1 59.1076 6.064C59.0896 6.01 59.0716 6.001 59.0536 6.037C59.0356 6.073 59.0176 6.145 58.9996 6.253C58.9816 6.361 58.9546 6.433 58.9186 6.469C58.7206 6.775 58.4956 7.063 58.2436 7.333C58.0096 7.603 57.7846 7.927 57.5686 8.305C57.2266 8.863 56.8306 9.538 56.3806 10.33C55.9306 11.104 55.5436 11.815 55.2196 12.463C55.0936 12.697 55.0036 12.904 54.9496 13.084C54.8956 13.246 54.8416 13.399 54.7876 13.543C54.7516 13.651 54.7336 13.714 54.7336 13.732C54.7336 13.876 54.8146 13.948 54.9766 13.948C55.0306 13.948 55.0846 13.939 55.1386 13.921C55.1926 13.885 55.2466 13.858 55.3006 13.84C55.3546 13.804 55.4176 13.777 55.4896 13.759C55.5616 13.741 55.6246 13.714 55.6786 13.678C55.6966 13.66 55.8046 13.597 56.0026 13.489C56.2006 13.363 56.3896 13.21 56.5696 13.03C56.6056 13.012 56.6506 12.976 56.7046 12.922C56.7586 12.868 56.7946 12.832 56.8126 12.814L57.1096 12.571C57.1456 12.517 57.1906 12.49 57.2446 12.49C57.3166 12.49 57.3706 12.526 57.4066 12.598C57.4426 12.67 57.4336 12.742 57.3796 12.814C57.3616 12.85 57.3076 12.895 57.2176 12.949C57.1276 12.985 57.0376 13.048 56.9476 13.138C56.8036 13.264 56.6326 13.399 56.4346 13.543C56.2546 13.687 56.0836 13.813 55.9216 13.921C55.8496 13.957 55.7686 14.011 55.6786 14.083C55.5886 14.137 55.5256 14.2 55.4896 14.272L55.2466 14.65C55.2466 14.686 55.2286 14.704 55.1926 14.704C55.1746 14.686 55.1206 14.713 55.0306 14.785C55.0126 14.803 55.0036 14.839 55.0036 14.893C55.0036 14.947 54.9856 14.992 54.9496 15.028C54.9316 15.082 54.9046 15.127 54.8686 15.163C54.8326 15.181 54.8146 15.199 54.8146 15.217C54.8146 15.271 54.7876 15.307 54.7336 15.325C54.6796 15.343 54.6346 15.37 54.5986 15.406C54.5806 15.424 54.5806 15.451 54.5986 15.487C54.6166 15.523 54.6166 15.559 54.5986 15.595L54.3556 16.162C54.3376 16.198 54.3106 16.234 54.2746 16.27C54.2566 16.306 54.2296 16.333 54.1936 16.351C54.1756 16.369 54.1486 16.36 54.1126 16.324C54.0766 16.306 54.0496 16.315 54.0316 16.351C54.0316 16.387 54.0406 16.441 54.0586 16.513C54.0946 16.585 54.0856 16.639 54.0316 16.675C53.9776 16.711 53.9326 16.783 53.8966 16.891C53.8606 17.017 53.8246 17.107 53.7886 17.161C53.7346 17.233 53.6716 17.278 53.5996 17.296C53.5456 17.314 53.4916 17.368 53.4376 17.458C53.4196 17.476 53.3566 17.548 53.2486 17.674C53.1586 17.818 53.0866 17.827 53.0326 17.701ZM50.3596 15.325C50.4136 15.325 50.4946 15.307 50.6026 15.271C51.1066 15.001 51.5476 14.722 51.9256 14.434C51.9256 14.416 51.9796 14.389 52.0876 14.353C52.1956 14.317 52.2406 14.29 52.2226 14.272L52.3576 14.245C52.3576 14.245 52.3846 14.254 52.4386 14.272C52.4926 14.29 52.5016 14.263 52.4656 14.191C52.5556 14.101 52.5736 14.047 52.5196 14.029C52.4656 14.011 52.4476 14.002 52.4656 14.002C52.5196 13.912 52.5646 13.867 52.6006 13.867C52.6366 13.867 52.6906 13.831 52.7626 13.759C52.8166 13.723 52.8706 13.687 52.9246 13.651C52.9786 13.597 53.0236 13.552 53.0596 13.516C53.0596 13.498 53.0596 13.489 53.0596 13.489C53.0776 13.471 53.0866 13.453 53.0866 13.435C53.0866 13.435 53.1136 13.435 53.1676 13.435C53.2396 13.417 53.2846 13.381 53.3026 13.327C53.4646 13.291 53.4916 13.273 53.3836 13.273C53.2756 13.255 53.2216 13.237 53.2216 13.219C53.2216 13.219 53.2576 13.192 53.3296 13.138C53.4016 13.084 53.4196 13.048 53.3836 13.03V13.003L53.4646 12.895L53.5726 12.868L53.5996 12.787C53.5996 12.733 53.6626 12.679 53.7886 12.625C53.9326 12.553 54.0136 12.49 54.0316 12.436C54.3016 12.076 54.5266 11.761 54.7066 11.491C54.9046 11.203 55.0396 10.969 55.1116 10.789C55.1476 10.717 55.1836 10.654 55.2196 10.6C55.2556 10.546 55.2916 10.492 55.3276 10.438C55.3636 10.294 55.3996 10.159 55.4356 10.033C55.4716 9.889 55.5166 9.736 55.5706 9.574C55.4986 9.556 55.3816 9.547 55.2196 9.547C54.9496 9.547 54.6346 9.601 54.2746 9.709C53.9326 9.817 53.5546 10.024 53.1406 10.33C53.0686 10.384 52.9786 10.465 52.8706 10.573C52.7806 10.681 52.6996 10.726 52.6276 10.708H52.5736C52.5196 10.708 52.4926 10.744 52.4926 10.816C52.5106 10.87 52.4836 10.933 52.4116 11.005C52.3756 11.041 52.3306 11.077 52.2766 11.113C52.2226 11.131 52.1596 11.176 52.0876 11.248C52.0516 11.284 52.0246 11.329 52.0066 11.383C51.9886 11.419 51.9526 11.464 51.8986 11.518C51.8266 11.608 51.7366 11.707 51.6286 11.815C51.5386 11.905 51.4576 11.986 51.3856 12.058C51.3136 12.13 51.2236 12.22 51.1156 12.328C51.0256 12.436 50.9536 12.544 50.8996 12.652C50.8816 12.67 50.8546 12.652 50.8186 12.598C50.7826 12.544 50.7556 12.526 50.7376 12.544V12.571C50.7376 12.607 50.7556 12.661 50.7916 12.733C50.8276 12.787 50.8276 12.832 50.7916 12.868C50.7736 12.904 50.7376 12.976 50.6836 13.084C50.6476 13.192 50.6116 13.273 50.5756 13.327C50.4316 13.615 50.3056 13.903 50.1976 14.191C50.1076 14.479 50.0626 14.722 50.0626 14.92C50.0626 15.19 50.1616 15.325 50.3596 15.325ZM58.9969 16.243C58.6009 16.243 58.2499 16.135 57.9439 15.919C57.6559 15.685 57.5119 15.289 57.5119 14.731C57.5119 14.533 57.5479 14.254 57.6199 13.894C57.6919 13.534 57.8089 13.156 57.9709 12.76C58.0609 12.544 58.1599 12.337 58.2679 12.139C58.3939 11.941 58.5109 11.752 58.6189 11.572C58.6369 11.554 58.6909 11.572 58.7809 11.626C58.8889 11.68 58.9519 11.698 58.9699 11.68C58.9879 11.644 58.9609 11.608 58.8889 11.572C58.8349 11.518 58.8169 11.482 58.8349 11.464C58.8709 11.428 58.8979 11.41 58.9159 11.41C58.9519 11.392 58.9789 11.365 58.9969 11.329C59.0149 11.293 59.0239 11.257 59.0239 11.221C59.0239 11.167 58.9969 11.122 58.9429 11.086C58.9069 11.05 58.9249 10.996 58.9969 10.924C59.0869 10.798 59.1859 10.681 59.2939 10.573C59.4199 10.447 59.5279 10.339 59.6179 10.249C59.6539 10.213 59.6989 10.159 59.7529 10.087C59.8069 9.997 59.8429 9.943 59.8609 9.925L59.9149 9.871C59.9329 9.853 59.9509 9.835 59.9689 9.817C59.9689 9.799 59.9689 9.79 59.9689 9.79C59.9869 9.79 59.9959 9.781 59.9959 9.763C59.9959 9.709 59.9419 9.655 59.8339 9.601C59.7259 9.547 59.6719 9.511 59.6719 9.493C59.6719 9.475 59.6629 9.457 59.6449 9.439C59.6269 9.421 59.6089 9.394 59.5909 9.358C59.6089 9.358 59.6269 9.34 59.6449 9.304C59.6809 9.25 59.7079 9.223 59.7259 9.223C59.7439 9.223 59.7799 9.241 59.8339 9.277C59.8879 9.295 59.9239 9.304 59.9419 9.304C59.9599 9.304 59.9689 9.295 59.9689 9.277C59.9869 9.259 60.0049 9.25 60.0229 9.25C60.0589 9.25 60.1399 9.277 60.2659 9.331C60.3919 9.367 60.4639 9.385 60.4819 9.385C60.4999 9.385 60.5539 9.34 60.6439 9.25C60.7339 9.16 60.7879 9.106 60.8059 9.088C60.8419 9.052 60.8689 9.016 60.8869 8.98C60.9049 8.926 60.9499 8.863 61.0219 8.791H61.0489C61.0669 8.773 61.0759 8.755 61.0759 8.737C61.0759 8.719 61.0759 8.71 61.0759 8.71C61.1119 8.674 61.1389 8.647 61.1569 8.629C61.1929 8.593 61.2199 8.566 61.2379 8.548C61.2559 8.53 61.2649 8.521 61.2649 8.521C61.2829 8.521 61.2919 8.521 61.2919 8.521C61.3099 8.485 61.3279 8.458 61.3459 8.44C61.3819 8.422 61.4089 8.404 61.4269 8.386L61.4809 8.278C61.5169 8.242 61.6429 8.161 61.8589 8.035C62.0749 7.909 62.2369 7.846 62.3449 7.846H62.4799C62.4799 7.846 62.4799 7.855 62.4799 7.873C62.4799 7.873 62.4889 7.873 62.5069 7.873C62.5249 7.873 62.5429 7.873 62.5609 7.873C62.5789 7.855 62.5969 7.846 62.6149 7.846C62.6149 7.846 62.6419 7.873 62.6959 7.927C62.7139 7.945 62.7319 7.954 62.7499 7.954C62.7679 7.936 62.7859 7.927 62.8039 7.927C62.8219 7.945 62.8309 7.963 62.8309 7.981C62.8309 7.999 62.8399 8.008 62.8579 8.008C62.8939 8.008 62.9029 8.008 62.8849 8.008C62.8849 7.99 62.8939 7.981 62.9119 7.981C62.9299 7.981 62.9389 7.999 62.9389 8.035C62.9389 8.071 62.9479 8.107 62.9659 8.143C62.9479 8.197 62.9299 8.26 62.9119 8.332C62.9119 8.386 62.9029 8.431 62.8849 8.467C62.7229 8.683 62.5969 8.791 62.5069 8.791C62.5069 8.809 62.4799 8.845 62.4259 8.899C62.3719 8.899 62.3089 8.917 62.2369 8.953C62.1649 8.989 62.0929 9.025 62.0209 9.061V9.142C62.0209 9.214 61.9939 9.25 61.9399 9.25C61.9039 9.232 61.8679 9.259 61.8319 9.331V9.358C61.8679 9.412 61.9309 9.439 62.0209 9.439L62.2099 9.466C62.2459 9.466 62.2639 9.457 62.2639 9.439C62.2819 9.421 62.2999 9.412 62.3179 9.412C62.3359 9.412 62.3449 9.421 62.3449 9.439C62.3449 9.439 62.3539 9.439 62.3719 9.439C62.4079 9.439 62.4349 9.43 62.4529 9.412C62.4709 9.394 62.4889 9.385 62.5069 9.385L62.7499 9.412C62.6959 9.322 62.6689 9.25 62.6689 9.196C62.6689 9.106 62.7499 9.052 62.9119 9.034C63.1639 9.034 63.3799 9.124 63.5599 9.304C63.5959 9.286 63.6409 9.286 63.6949 9.304C63.7489 9.322 63.8029 9.322 63.8569 9.304L63.9919 9.223L64.0189 9.25C64.0909 9.214 64.1359 9.196 64.1539 9.196C64.1899 9.196 64.1989 9.205 64.1809 9.223C64.1809 9.223 64.1899 9.223 64.2079 9.223C64.2079 9.223 64.2259 9.205 64.2619 9.169C64.2799 9.169 64.2979 9.178 64.3159 9.196C64.3519 9.196 64.3789 9.187 64.3969 9.169L64.4779 9.088H64.8019L64.8289 9.061C64.8649 9.043 64.9099 9.025 64.9639 9.007C65.0359 8.971 65.0989 8.953 65.1529 8.953C65.1529 8.935 65.1709 8.926 65.2069 8.926C65.2429 8.908 65.2699 8.899 65.2879 8.899H65.3419C65.4319 8.899 65.4769 8.926 65.4769 8.98C65.4769 9.034 65.4499 9.079 65.3959 9.115C65.3779 9.133 65.3509 9.142 65.3149 9.142C65.2789 9.124 65.2429 9.124 65.2069 9.142C65.1349 9.214 65.0809 9.25 65.0449 9.25C65.0269 9.25 65.0179 9.25 65.0179 9.25C65.0179 9.232 65.0089 9.223 64.9909 9.223C64.9729 9.223 64.9369 9.25 64.8829 9.304L64.6939 9.331H64.6669C64.6309 9.331 64.6129 9.349 64.6129 9.385C64.5409 9.385 64.4689 9.394 64.3969 9.412C64.3249 9.412 64.2529 9.421 64.1809 9.439L64.1539 9.466C64.1359 9.466 64.1179 9.475 64.0999 9.493C64.0819 9.493 64.0549 9.493 64.0189 9.493C63.9829 9.511 63.8839 9.52 63.7219 9.52C63.8299 9.664 63.9019 9.799 63.9379 9.925C63.9739 10.015 64.0009 10.159 64.0189 10.357C64.0549 10.537 64.0639 10.672 64.0459 10.762C64.0459 10.816 64.0279 10.834 63.9919 10.816C63.9559 10.78 63.9379 10.78 63.9379 10.816C63.9379 10.87 63.9559 10.906 63.9919 10.924C64.0459 10.924 64.0729 10.969 64.0729 11.059C64.0729 11.113 64.0639 11.185 64.0459 11.275C64.0279 11.347 64.0099 11.428 63.9919 11.518C63.9739 11.626 63.9469 11.743 63.9109 11.869C63.8929 11.977 63.8479 12.085 63.7759 12.193L63.6949 12.328V12.49C63.6949 12.634 63.6499 12.733 63.5599 12.787C63.4879 12.841 63.4339 12.904 63.3979 12.976C63.3619 13.084 63.3349 13.156 63.3169 13.192C63.3169 13.228 63.2809 13.3 63.2089 13.408C62.9749 13.768 62.6959 14.11 62.3719 14.434C62.0479 14.758 61.7329 15.055 61.4269 15.325C61.1569 15.559 60.7879 15.775 60.3199 15.973C59.8699 16.153 59.4289 16.243 58.9969 16.243ZM59.2669 15.757C59.3209 15.757 59.4289 15.748 59.5909 15.73C59.7529 15.694 59.9239 15.613 60.1039 15.487C60.1399 15.469 60.1759 15.478 60.2119 15.514C60.2479 15.55 60.2839 15.559 60.3199 15.541C60.4099 15.505 60.4459 15.478 60.4279 15.46C60.4099 15.442 60.4369 15.424 60.5089 15.406H60.5359C60.6439 15.406 60.6889 15.397 60.6709 15.379C60.6709 15.343 60.6799 15.298 60.6979 15.244C60.6979 15.19 60.7249 15.145 60.7789 15.109C60.8329 15.073 60.8779 15.046 60.9139 15.028C61.1119 14.866 61.3549 14.596 61.6429 14.218C61.9309 13.822 62.2189 13.426 62.5069 13.03C62.5249 12.994 62.5519 12.985 62.5879 13.003C62.6239 13.021 62.6509 13.021 62.6689 13.003C62.6869 12.985 62.6959 12.931 62.6959 12.841C62.6959 12.787 62.7229 12.706 62.7769 12.598C62.8309 12.472 62.8849 12.373 62.9389 12.301C62.9569 12.247 62.9929 12.148 63.0469 12.004C63.1009 11.842 63.1459 11.698 63.1819 11.572C63.2359 11.428 63.2449 11.356 63.2089 11.356C63.1729 11.338 63.1549 11.32 63.1549 11.302C63.1549 11.266 63.2089 11.23 63.3169 11.194C63.4249 11.158 63.4159 11.131 63.2899 11.113C63.2539 11.095 63.2629 11.059 63.3169 11.005C63.3709 10.951 63.3439 10.915 63.2359 10.897C63.1459 10.879 63.1099 10.852 63.1279 10.816C63.1639 10.78 63.1909 10.753 63.2089 10.735C63.2629 10.681 63.2899 10.627 63.2899 10.573C63.2899 10.411 63.2449 10.249 63.1549 10.087C63.0829 9.925 63.0019 9.781 62.9119 9.655C62.8039 9.727 62.7499 9.763 62.7499 9.763C62.7319 9.763 62.7229 9.763 62.7229 9.763C62.7229 9.745 62.7049 9.736 62.6689 9.736C62.6509 9.736 62.6419 9.736 62.6419 9.736C62.6419 9.718 62.6329 9.709 62.6149 9.709C62.5969 9.709 62.5789 9.718 62.5609 9.736C62.5429 9.754 62.5339 9.763 62.5339 9.763C62.5159 9.781 62.4799 9.79 62.4259 9.79C62.3899 9.79 62.3629 9.79 62.3449 9.79C62.3269 9.79 62.3089 9.781 62.2909 9.763C62.2909 9.745 62.2819 9.736 62.2639 9.736C62.2459 9.736 62.2189 9.754 62.1829 9.79C62.1649 9.826 62.1379 9.844 62.1019 9.844C62.0839 9.844 62.0749 9.835 62.0749 9.817C62.0749 9.799 62.0569 9.79 62.0209 9.79C62.0029 9.79 61.9849 9.799 61.9669 9.817C61.9669 9.835 61.9579 9.844 61.9399 9.844C61.9219 9.844 61.8859 9.817 61.8319 9.763H61.8049C61.8049 9.871 61.7779 9.925 61.7239 9.925C61.7059 9.925 61.6789 9.907 61.6429 9.871C61.4449 9.997 61.1119 10.294 60.6439 10.762C60.1759 11.212 59.7619 11.734 59.4019 12.328C59.3299 12.472 59.2399 12.643 59.1319 12.841C59.0419 13.039 58.9609 13.264 58.8889 13.516C58.8709 13.624 58.8169 13.705 58.7269 13.759C58.6549 13.813 58.6009 13.876 58.5649 13.948C58.5469 14.02 58.5559 14.065 58.5919 14.083C58.6279 14.101 58.6549 14.128 58.6729 14.164C58.6729 14.236 58.6549 14.335 58.6189 14.461C58.6009 14.587 58.5919 14.704 58.5919 14.812C58.5919 15.154 58.6549 15.397 58.7809 15.541C58.9249 15.685 59.0869 15.757 59.2669 15.757ZM77.7606 17.485C77.6346 17.485 77.5356 17.449 77.4636 17.377C77.4096 17.323 77.3286 17.332 77.2206 17.404C77.1666 17.386 77.0946 17.359 77.0046 17.323C76.9326 17.305 76.8696 17.278 76.8156 17.242L76.3296 16.891C76.2036 16.801 76.0686 16.711 75.9246 16.621C75.7986 16.549 75.6906 16.477 75.6006 16.405L75.5196 16.297C75.1416 16.315 74.7456 16.243 74.3316 16.081C73.9356 15.937 73.5306 15.685 73.1166 15.325C73.0086 15.307 72.9186 15.244 72.8466 15.136C72.7746 15.01 72.7026 14.911 72.6306 14.839C72.5046 14.821 72.4236 14.776 72.3876 14.704C72.3696 14.632 72.3426 14.542 72.3066 14.434C72.2886 14.434 72.2706 14.425 72.2526 14.407C72.2526 14.389 72.2526 14.38 72.2526 14.38L72.1176 14.272V14.245C72.0456 14.101 72.0006 14.002 71.9826 13.948C71.9646 13.894 71.8926 13.813 71.7666 13.705C71.7306 13.669 71.7036 13.615 71.6856 13.543C71.6676 13.453 71.6406 13.39 71.6046 13.354C71.3886 12.886 71.1996 12.418 71.0376 11.95C70.8756 11.482 70.7946 10.996 70.7946 10.492C70.7946 10.33 70.8396 10.213 70.9296 10.141C71.0196 10.051 71.1186 10.006 71.2266 10.006C71.4606 10.006 71.6136 10.123 71.6856 10.357C71.7216 10.411 71.7576 10.483 71.7936 10.573C71.8296 10.645 71.8566 10.717 71.8746 10.789L71.9016 11.032C71.9196 11.176 71.9916 11.401 72.1176 11.707C72.2616 12.013 72.4236 12.319 72.6036 12.625C72.8016 12.931 72.9906 13.165 73.1706 13.327L73.5756 13.921C73.6656 14.137 73.7916 14.344 73.9536 14.542C74.1156 14.722 74.2596 14.857 74.3856 14.947L75.2766 15.757L75.5196 15.973C75.9876 15.973 76.4376 15.757 76.8696 15.325C77.2836 14.947 77.6436 14.479 77.9496 13.921C78.2556 13.363 78.5256 12.778 78.7596 12.166C79.0116 11.554 79.2366 10.978 79.4346 10.438L79.5426 10.303C79.5966 10.195 79.6326 10.06 79.6506 9.898C79.6686 9.736 79.6866 9.592 79.7046 9.466C79.7946 9.358 79.8756 9.232 79.9476 9.088C80.0196 8.944 80.0466 8.8 80.0286 8.656L80.0556 8.548C80.1096 8.53 80.1096 8.503 80.0556 8.467C80.0016 8.431 80.0286 8.404 80.1366 8.386C80.2446 8.206 80.3076 8.017 80.3256 7.819C80.3436 7.621 80.3796 7.477 80.4336 7.387C80.4876 7.315 80.5326 7.243 80.5686 7.171C80.6226 7.099 80.6316 7.009 80.5956 6.901C80.6136 6.829 80.6676 6.667 80.7576 6.415C80.8476 6.163 80.9466 5.893 81.0546 5.605C81.1806 5.299 81.2796 5.038 81.3516 4.822C81.4416 4.588 81.4866 4.462 81.4866 4.444C81.5046 4.372 81.5046 4.3 81.4866 4.228C81.4866 4.138 81.4956 4.048 81.5136 3.958L81.5946 3.661C81.1986 3.679 80.7936 3.724 80.3796 3.796C79.9656 3.85 79.5696 3.913 79.1916 3.985C78.9936 4.021 78.8946 4.03 78.8946 4.012C78.9126 3.976 78.9396 3.94 78.9756 3.904C79.0296 3.85 79.0116 3.823 78.9216 3.823H78.8406C78.7146 3.823 78.5976 3.85 78.4896 3.904C78.3996 3.94 78.3546 3.976 78.3546 4.012C78.3366 4.084 78.2016 4.147 77.9496 4.201C77.7156 4.255 77.5806 4.282 77.5446 4.282C77.3106 4.318 77.0946 4.354 76.8966 4.39C76.6986 4.426 76.5186 4.453 76.3566 4.471C76.3026 4.489 76.2486 4.453 76.1946 4.363C76.1586 4.273 76.1406 4.174 76.1406 4.066C76.1406 3.958 76.1586 3.859 76.1946 3.769C76.2486 3.661 76.2936 3.589 76.3296 3.553C76.3296 3.535 76.3476 3.526 76.3836 3.526H76.4106L77.1126 3.445C77.2566 3.409 77.4456 3.391 77.6796 3.391C77.9316 3.391 78.1476 3.355 78.3276 3.283L79.4076 3.229C79.6236 3.211 79.8756 3.202 80.1636 3.202C80.4516 3.184 80.6946 3.175 80.8926 3.175C80.9826 3.175 81.0186 3.184 81.0006 3.202C80.9826 3.22 81.0096 3.229 81.0816 3.229C81.1896 3.229 81.2616 3.22 81.2976 3.202C81.3336 3.184 81.4146 3.175 81.5406 3.175H81.7836L81.8376 3.094C81.9276 2.95 82.0266 2.842 82.1346 2.77C82.2426 2.698 82.3956 2.671 82.5936 2.689C82.7916 2.689 82.9356 2.77 83.0256 2.932C83.0436 2.95 83.0436 2.977 83.0256 3.013C83.0256 3.031 83.0346 3.049 83.0526 3.067C83.0526 3.085 83.0706 3.148 83.1066 3.256C83.1426 3.256 83.1786 3.265 83.2146 3.283C83.2686 3.283 83.3046 3.283 83.3226 3.283C83.3586 3.301 83.3676 3.319 83.3496 3.337C83.3316 3.355 83.3316 3.373 83.3496 3.391C83.4036 3.409 83.4396 3.409 83.4576 3.391C83.4936 3.355 83.5386 3.337 83.5926 3.337C83.7006 3.337 83.7726 3.355 83.8086 3.391L84.1326 3.472C84.2586 3.526 84.3216 3.607 84.3216 3.715C84.3216 3.805 84.2586 3.832 84.1326 3.796L83.9166 3.715L83.6466 3.688C83.5746 3.67 83.4846 3.661 83.3766 3.661C83.2686 3.643 83.1606 3.634 83.0526 3.634L82.9176 4.039C82.8276 4.309 82.7556 4.597 82.7016 4.903C82.6656 5.209 82.4856 5.443 82.1616 5.605C82.1436 5.677 82.0806 5.839 81.9726 6.091C81.8826 6.325 81.7926 6.559 81.7026 6.793C81.6126 7.009 81.5496 7.135 81.5136 7.171C81.4596 7.243 81.4056 7.315 81.3516 7.387C81.3156 7.441 81.2886 7.513 81.2706 7.603C81.2526 7.783 81.1896 8.026 81.0816 8.332C80.9736 8.62 80.8566 8.917 80.7306 9.223C80.6046 9.529 80.4966 9.772 80.4066 9.952C80.3166 10.024 80.2356 10.078 80.1636 10.114C80.1096 10.15 80.1366 10.231 80.2446 10.357C80.1906 10.483 80.1366 10.546 80.0826 10.546C80.0286 10.528 79.9566 10.51 79.8666 10.492C79.9026 10.564 79.9296 10.618 79.9476 10.654C79.9836 10.672 80.0106 10.726 80.0286 10.816C79.9026 11.122 79.7496 11.491 79.5696 11.923C79.4076 12.355 79.2276 12.697 79.0296 12.949C78.9036 13.003 78.8046 13.057 78.7326 13.111C78.6786 13.165 78.6876 13.273 78.7596 13.435C78.6876 13.543 78.6516 13.633 78.6516 13.705L78.4626 14.002C78.3906 14.056 78.3186 14.119 78.2466 14.191C78.1926 14.245 78.1656 14.326 78.1656 14.434L78.0036 14.677C77.9136 14.713 77.8326 14.758 77.7606 14.812C77.6886 14.866 77.6526 14.956 77.6526 15.082C77.1126 15.694 76.5186 16.081 75.8706 16.243L76.0866 16.405C76.1226 16.405 76.1946 16.441 76.3026 16.513C76.4286 16.585 76.5006 16.639 76.5186 16.675C76.7346 16.837 76.9056 16.945 77.0316 16.999C77.1756 17.053 77.3106 17.08 77.4366 17.08C77.5806 17.08 77.7876 17.053 78.0576 16.999H78.1926C78.3186 16.999 78.3816 17.026 78.3816 17.08C78.3996 17.134 78.3726 17.197 78.3006 17.269C78.2826 17.287 78.2466 17.314 78.1926 17.35C78.1566 17.404 78.1296 17.431 78.1116 17.431C78.0576 17.431 78.0036 17.44 77.9496 17.458C77.8956 17.476 77.8326 17.485 77.7606 17.485ZM74.8716 15.838L74.7906 15.784C74.7366 15.676 74.6286 15.577 74.4666 15.487C74.3226 15.397 74.1876 15.289 74.0616 15.163C73.9356 15.037 73.8186 14.911 73.7106 14.785C73.6206 14.641 73.5306 14.524 73.4406 14.434C73.4046 14.38 73.3326 14.29 73.2246 14.164C73.1346 14.02 73.0356 13.885 72.9276 13.759C72.8556 13.687 72.8106 13.606 72.7926 13.516C72.7926 13.426 72.7746 13.372 72.7386 13.354C72.6666 13.264 72.5946 13.183 72.5226 13.111C72.4506 13.021 72.3786 12.913 72.3066 12.787C72.2346 12.643 72.1536 12.481 72.0636 12.301C71.9736 12.121 71.8566 11.95 71.7126 11.788L71.2266 11.194C71.4786 12.148 71.8566 12.994 72.3606 13.732C72.8646 14.47 73.3956 15.019 73.9536 15.379C74.1156 15.487 74.2686 15.586 74.4126 15.676C74.5746 15.748 74.7276 15.802 74.8716 15.838ZM86.7491 15.973C86.4791 15.973 86.2811 15.856 86.1551 15.622C86.1371 15.568 86.0921 15.487 86.0201 15.379C85.9661 15.271 85.9211 15.181 85.8851 15.109V15.082C85.8851 15.046 85.8941 15.01 85.9121 14.974C85.9301 14.938 85.9391 14.902 85.9391 14.866C85.9391 14.794 85.9211 14.731 85.8851 14.677C85.8491 14.605 85.8311 14.533 85.8311 14.461C85.8311 14.209 85.9031 13.912 86.0471 13.57C86.2091 13.228 86.3351 12.931 86.4251 12.679C86.4611 12.535 86.5511 12.364 86.6951 12.166C86.7131 12.148 86.7311 12.139 86.7491 12.139C86.7851 12.139 86.8121 12.13 86.8301 12.112C86.8661 12.058 86.8841 12.004 86.8841 11.95C86.9021 11.878 86.9201 11.815 86.9381 11.761C86.9561 11.725 86.9921 11.707 87.0461 11.707C87.1001 11.707 87.1361 11.689 87.1541 11.653C87.1721 11.617 87.1451 11.599 87.0731 11.599C87.0011 11.599 86.9741 11.581 86.9921 11.545C87.1181 11.311 87.2531 11.068 87.3971 10.816C87.5591 10.564 87.6671 10.402 87.7211 10.33C87.7031 10.348 87.6941 10.33 87.6941 10.276C87.6941 10.204 87.6761 10.177 87.6401 10.195C87.6221 10.213 87.5771 10.258 87.5051 10.33C87.4331 10.402 87.3791 10.456 87.3431 10.492C87.2531 10.564 87.1451 10.663 87.0191 10.789C86.8931 10.915 86.8121 10.996 86.7761 11.032C86.7221 11.05 86.6501 11.131 86.5601 11.275C86.4701 11.401 86.4071 11.482 86.3711 11.518C86.2991 11.59 86.2271 11.626 86.1551 11.626C86.1191 11.626 86.0921 11.608 86.0741 11.572C86.0741 11.518 86.0921 11.464 86.1281 11.41C86.1641 11.374 86.2001 11.329 86.2361 11.275C86.2721 11.203 86.2991 11.149 86.3171 11.113C86.3351 11.095 86.3621 11.068 86.3981 11.032C86.4341 10.978 86.4521 10.942 86.4521 10.924L86.6681 10.681C86.6861 10.663 86.7221 10.663 86.7761 10.681C86.8301 10.681 86.8661 10.672 86.8841 10.654C86.9021 10.618 86.8751 10.6 86.8031 10.6C86.7491 10.582 86.7311 10.564 86.7491 10.546C86.9111 10.258 87.1181 9.979 87.3701 9.709C87.6221 9.439 87.7931 9.25 87.8831 9.142C87.9731 9.034 88.0901 8.953 88.2341 8.899C88.3961 8.827 88.5491 8.791 88.6931 8.791C88.8191 8.791 88.9091 8.8 88.9631 8.818C89.0711 8.854 89.1971 8.908 89.3411 8.98C89.5031 9.034 89.6021 9.115 89.6381 9.223C89.6921 9.331 89.6561 9.502 89.5301 9.736C89.4041 9.97 89.2511 10.204 89.0711 10.438C88.9091 10.654 88.7741 10.798 88.6661 10.87C88.6481 10.888 88.6031 10.897 88.5311 10.897C88.4591 10.897 88.3691 10.897 88.2611 10.897C88.1531 10.879 88.0901 10.888 88.0721 10.924C88.0181 10.996 87.9551 11.068 87.8831 11.14C87.8111 11.194 87.7571 11.266 87.7211 11.356C87.7031 11.464 87.6761 11.554 87.6401 11.626C87.6221 11.698 87.5681 11.806 87.4781 11.95C87.4601 11.986 87.4241 12.049 87.3701 12.139C87.3161 12.211 87.2801 12.265 87.2621 12.301C87.1361 12.697 87.0191 13.075 86.9111 13.435C86.8211 13.777 86.7761 14.065 86.7761 14.299C86.7761 14.533 86.8481 14.74 86.9921 14.92C87.1361 15.082 87.3251 15.163 87.5591 15.163C87.8291 15.163 88.1171 15.073 88.4231 14.893C88.6031 14.821 88.8011 14.686 89.0171 14.488C89.0531 14.452 89.0801 14.425 89.0981 14.407C89.1341 14.371 89.1701 14.344 89.2061 14.326H89.2871C89.3771 14.326 89.4221 14.362 89.4221 14.434C89.4221 14.506 89.3591 14.596 89.2331 14.704C89.1611 14.758 89.0891 14.803 89.0171 14.839C88.9631 14.875 88.9001 14.92 88.8281 14.974C88.7381 15.028 88.6391 15.118 88.5311 15.244C88.4231 15.352 88.2971 15.406 88.1531 15.406H88.1261C88.0721 15.406 88.0271 15.397 87.9911 15.379C87.9551 15.343 87.9191 15.334 87.8831 15.352C87.8291 15.37 87.8291 15.406 87.8831 15.46C87.9551 15.496 87.9641 15.532 87.9101 15.568L87.6941 15.676C87.2981 15.874 86.9831 15.973 86.7491 15.973ZM82.3751 15.811C82.2671 15.811 82.1321 15.694 81.9701 15.46C81.8621 15.316 81.8081 15.091 81.8081 14.785C81.8081 14.479 81.8621 14.146 81.9701 13.786C82.0961 13.426 82.2491 13.111 82.4291 12.841C82.6271 12.445 82.7621 12.148 82.8341 11.95C82.9061 11.752 82.9781 11.59 83.0501 11.464C83.0501 11.446 83.0321 11.428 82.9961 11.41C82.9601 11.392 82.9421 11.356 82.9421 11.302C82.8341 11.23 82.7171 11.131 82.5911 11.005C82.4831 10.861 82.4741 10.726 82.5641 10.6C82.6001 10.564 82.6271 10.546 82.6451 10.546C82.6631 10.528 82.6721 10.519 82.6721 10.519V10.465C82.6721 10.393 82.6991 10.348 82.7531 10.33C82.8251 10.312 82.8611 10.285 82.8611 10.249C82.8971 9.997 83.1041 9.808 83.4821 9.682C83.8781 9.556 84.2291 9.493 84.5351 9.493C84.8771 9.493 85.0481 9.547 85.0481 9.655C85.0481 9.709 84.9851 9.772 84.8591 9.844C84.8051 9.862 84.7151 9.934 84.5891 10.06C84.4631 10.186 84.3461 10.339 84.2381 10.519L84.0491 10.843L83.8601 11.086C83.7521 11.284 83.6351 11.491 83.5091 11.707C83.4011 11.905 83.2211 12.283 82.9691 12.841C82.8971 13.021 82.8341 13.192 82.7801 13.354C82.7441 13.516 82.7441 13.642 82.7801 13.732C82.7981 13.75 82.7351 13.813 82.5911 13.921C82.4651 14.029 82.4111 14.092 82.4291 14.11C82.4471 14.11 82.4741 14.119 82.5101 14.137C82.5461 14.137 82.5911 14.137 82.6451 14.137C82.7531 14.137 82.8611 14.119 82.9691 14.083C83.0231 14.065 83.0681 14.029 83.1041 13.975C83.1401 13.903 83.1671 13.867 83.1851 13.867C83.2931 13.867 83.4101 13.84 83.5361 13.786C83.7341 13.696 83.9771 13.516 84.2651 13.246C84.3011 13.21 84.3731 13.183 84.4811 13.165C84.5891 13.129 84.6791 13.066 84.7511 12.976C84.9671 12.778 85.0931 12.661 85.1291 12.625C85.1651 12.571 85.2731 12.454 85.4531 12.274C85.4531 12.256 85.4891 12.175 85.5611 12.031C85.6331 11.869 85.6691 11.779 85.6691 11.761C85.7051 11.671 85.7411 11.626 85.7771 11.626C85.8491 11.626 85.9031 11.689 85.9391 11.815C85.9931 11.941 85.9931 12.049 85.9391 12.139C85.9211 12.157 85.8761 12.193 85.8041 12.247C85.7501 12.301 85.7051 12.346 85.6691 12.382L85.3181 12.733L84.5891 13.381C84.5711 13.399 84.5531 13.426 84.5351 13.462C84.5171 13.498 84.4901 13.534 84.4541 13.57L84.2111 13.948C84.1931 13.984 84.1571 13.984 84.1031 13.948C84.0491 13.894 83.9771 13.903 83.8871 13.975C83.8691 13.993 83.8511 14.029 83.8331 14.083C83.8331 14.137 83.8241 14.182 83.8061 14.218C83.7881 14.272 83.7881 14.308 83.8061 14.326C83.8241 14.326 83.8331 14.335 83.8331 14.353C83.8151 14.407 83.7791 14.443 83.7251 14.461C83.6891 14.479 83.6531 14.506 83.6171 14.542C83.5991 14.56 83.5991 14.587 83.6171 14.623C83.6351 14.659 83.6261 14.695 83.5901 14.731C83.5721 14.785 83.5541 14.803 83.5361 14.785C83.5181 14.767 83.4911 14.776 83.4551 14.812C83.4371 14.83 83.4101 14.857 83.3741 14.893C83.3561 14.911 83.3291 14.929 83.2931 14.947C83.1491 15.001 83.0681 15.073 83.0501 15.163C83.0321 15.253 82.9691 15.352 82.8611 15.46C82.6271 15.694 82.4651 15.811 82.3751 15.811ZM89.8632 16.081C89.7552 16.081 89.7012 16.018 89.7012 15.892C89.7012 15.802 89.7282 15.694 89.7822 15.568C89.9262 15.262 90.0972 14.83 90.2952 14.272C90.4932 13.714 90.7362 13.237 91.0242 12.841L92.0772 10.492C92.0772 10.492 92.0592 10.483 92.0232 10.465C91.9872 10.429 91.9692 10.393 91.9692 10.357C91.8612 10.285 91.7442 10.186 91.6182 10.06C91.5102 9.916 91.5012 9.772 91.5912 9.628C91.6272 9.592 91.6542 9.574 91.6722 9.574C91.6902 9.574 91.6992 9.574 91.6992 9.574V9.52C91.6992 9.448 91.7262 9.403 91.7802 9.385C91.8522 9.367 91.8972 9.34 91.9152 9.304C91.9512 9.052 92.1582 8.863 92.5362 8.737C92.9322 8.611 93.2832 8.548 93.5892 8.548C93.8952 8.548 94.0482 8.593 94.0482 8.683C94.0482 8.737 93.9942 8.8 93.8862 8.872C93.8502 8.908 93.7602 8.989 93.6162 9.115C93.4902 9.241 93.3732 9.394 93.2652 9.574L93.0762 9.898L92.8872 10.141C92.5992 10.663 92.3652 11.104 92.1852 11.464C92.0052 11.824 91.7892 12.283 91.5372 12.841C91.4832 12.949 91.4562 13.039 91.4562 13.111C91.4562 13.201 91.4922 13.246 91.5642 13.246C91.6002 13.246 91.6362 13.237 91.6722 13.219C91.7262 13.183 91.7802 13.156 91.8342 13.138C91.9782 13.048 92.0952 12.967 92.1852 12.895C92.2932 12.805 92.4102 12.715 92.5362 12.625C92.5902 12.571 92.6352 12.571 92.6712 12.625C92.7072 12.661 92.7072 12.715 92.6712 12.787C92.5992 12.931 92.5452 13.021 92.5092 13.057C92.4912 13.075 92.4642 13.093 92.4282 13.111C92.3922 13.129 92.3112 13.21 92.1852 13.354L92.0772 13.57C92.0412 13.606 91.9962 13.678 91.9422 13.786C91.9062 13.876 91.8882 13.93 91.8882 13.948C91.8882 13.984 91.8702 14.002 91.8342 14.002C91.7982 13.984 91.7442 14.011 91.6722 14.083C91.6542 14.101 91.6452 14.137 91.6452 14.191C91.6632 14.245 91.6542 14.29 91.6182 14.326C91.6002 14.38 91.5732 14.425 91.5372 14.461C91.5012 14.479 91.4832 14.497 91.4832 14.515C91.4652 14.587 91.4292 14.632 91.3752 14.65C91.3392 14.65 91.3032 14.668 91.2672 14.704C91.2492 14.704 91.2402 14.722 91.2402 14.758C91.2402 14.902 91.2222 14.965 91.1862 14.947C91.1502 14.929 91.1142 14.947 91.0782 15.001C91.0422 15.073 90.9972 15.109 90.9432 15.109C90.8352 15.145 90.7902 15.172 90.8082 15.19C90.8262 15.208 90.8532 15.226 90.8892 15.244C90.9252 15.244 90.8982 15.271 90.8082 15.325C90.7542 15.343 90.7092 15.397 90.6732 15.487C90.6372 15.559 90.6012 15.613 90.5652 15.649C90.5292 15.685 90.4842 15.712 90.4302 15.73C90.3762 15.748 90.3312 15.784 90.2952 15.838C90.1332 16 89.9892 16.081 89.8632 16.081ZM97.9092 15.865C97.8372 15.865 97.7742 15.865 97.7202 15.865C97.6662 15.847 97.6122 15.829 97.5582 15.811C97.3782 15.775 97.2162 15.721 97.0722 15.649C96.9462 15.577 96.8382 15.442 96.7482 15.244C96.7302 15.154 96.6852 15.037 96.6132 14.893C96.5592 14.749 96.5232 14.614 96.5052 14.488C96.4872 14.398 96.4782 14.29 96.4782 14.164C96.4602 14.074 96.4512 13.957 96.4512 13.813C96.4152 13.633 96.3972 13.471 96.3972 13.327C96.4152 13.183 96.4242 13.012 96.4242 12.814C96.4242 12.616 96.4332 12.472 96.4512 12.382C96.4872 12.22 96.5052 12.139 96.5052 12.139C96.5052 12.121 96.5052 12.031 96.5052 11.869C96.5232 11.653 96.5322 11.428 96.5322 11.194C96.5322 10.96 96.5412 10.771 96.5592 10.627C96.6132 10.087 96.5052 9.817 96.2352 9.817C96.1272 9.817 95.9832 9.862 95.8032 9.952C95.7852 10.006 95.7492 10.042 95.6952 10.06C95.6592 10.06 95.6052 10.078 95.5332 10.114L95.3982 10.195C95.3982 10.213 95.3802 10.222 95.3442 10.222C95.3082 10.204 95.2902 10.213 95.2902 10.249C95.3082 10.321 95.2992 10.366 95.2632 10.384C95.2452 10.402 95.2182 10.393 95.1822 10.357L94.8852 10.573C94.8852 10.591 94.8582 10.627 94.8042 10.681L94.7772 10.708C94.7052 10.78 94.6422 10.816 94.5882 10.816L94.5072 10.897C94.5072 10.915 94.4892 10.951 94.4532 11.005C94.4352 11.041 94.3902 11.05 94.3182 11.032L94.1832 11.167C94.1112 11.275 94.0482 11.338 93.9942 11.356C93.9582 11.374 93.9132 11.392 93.8592 11.41L93.6432 11.68L93.5352 11.707C93.5352 11.779 93.4542 11.887 93.2922 12.031C93.1482 12.175 93.0492 12.274 92.9952 12.328C92.9412 12.382 92.8872 12.409 92.8332 12.409C92.7972 12.409 92.7792 12.391 92.7792 12.355C92.7792 12.337 92.8242 12.265 92.9142 12.139C92.9862 12.067 93.0942 11.932 93.2382 11.734C93.4002 11.536 93.4902 11.446 93.5082 11.464C93.5982 11.374 93.6612 11.284 93.6972 11.194C93.7332 11.086 93.7962 10.996 93.8862 10.924C93.8862 10.942 93.8862 10.96 93.8862 10.978C93.9042 10.978 93.9132 10.978 93.9132 10.978C93.9492 10.978 93.9942 10.933 94.0482 10.843C94.1022 10.735 94.1382 10.69 94.1562 10.708L94.6152 10.303C94.6152 10.285 94.6602 10.249 94.7502 10.195C94.8222 10.159 94.8672 10.141 94.8852 10.141C94.9032 10.141 94.9482 10.087 95.0202 9.979L95.2092 9.844C95.2272 9.808 95.2452 9.817 95.2632 9.871C95.2992 9.907 95.3262 9.916 95.3442 9.898L95.4252 9.709C95.4612 9.655 95.5152 9.61 95.5872 9.574C95.6772 9.52 95.7672 9.466 95.8572 9.412C96.0732 9.196 96.2352 9.088 96.3432 9.088H96.4512C96.6852 8.998 96.9012 8.953 97.0992 8.953C97.3872 8.953 97.6122 9.061 97.7742 9.277C97.8102 9.331 97.8462 9.43 97.8822 9.574C97.9182 9.592 97.9272 9.619 97.9092 9.655C97.9092 9.673 97.9182 9.7 97.9362 9.736C97.9542 9.772 97.9902 9.817 98.0442 9.871C98.0982 9.907 98.1252 9.952 98.1252 10.006V10.06C98.1252 10.132 98.0802 10.195 97.9902 10.249C98.0802 10.321 98.1162 10.366 98.0982 10.384C98.0982 10.384 98.0892 10.411 98.0712 10.465L98.0172 10.843C97.9992 10.969 97.9722 11.068 97.9362 11.14C97.9002 11.194 97.8642 11.293 97.8282 11.437C97.9002 11.545 97.9002 11.617 97.8282 11.653H97.7742L97.7472 11.761C97.7472 11.797 97.7652 11.833 97.8012 11.869L97.7202 12.031C97.7382 12.013 97.7472 12.013 97.7472 12.031C97.7652 12.031 97.7742 12.031 97.7742 12.031C97.7562 12.067 97.7292 12.139 97.6932 12.247C97.6572 12.337 97.6302 12.409 97.6122 12.463C97.5942 12.553 97.5582 12.598 97.5042 12.598C97.4502 12.598 97.4322 12.643 97.4502 12.733C97.4682 12.751 97.4772 12.814 97.4772 12.922C97.4952 13.012 97.4862 13.057 97.4502 13.057L97.3962 13.381V13.462C97.3962 13.552 97.3782 13.642 97.3422 13.732C97.3242 13.822 97.3062 13.912 97.2882 14.002C97.2702 14.092 97.2522 14.191 97.2342 14.299C97.2342 14.389 97.2342 14.479 97.2342 14.569C97.2342 14.641 97.2342 14.722 97.2342 14.812C97.2522 14.884 97.2702 14.956 97.2882 15.028C97.2882 15.046 97.3152 15.1 97.3692 15.19C97.4232 15.28 97.4502 15.334 97.4502 15.352L97.5312 15.433C97.5672 15.451 97.6212 15.451 97.6932 15.433C97.7832 15.415 97.8462 15.424 97.8822 15.46C98.0442 15.478 98.2512 15.397 98.5032 15.217C98.7732 15.019 99.0162 14.803 99.2322 14.569C99.2862 14.515 99.3402 14.488 99.3942 14.488C99.4302 14.488 99.4572 14.515 99.4752 14.569C99.4932 14.623 99.4752 14.695 99.4212 14.785C99.1332 15.199 98.8632 15.487 98.6112 15.649C98.3592 15.793 98.1252 15.865 97.9092 15.865ZM104.093 7.576C104.039 7.576 103.985 7.558 103.931 7.522C103.895 7.486 103.841 7.441 103.769 7.387C103.733 7.369 103.688 7.351 103.634 7.333C103.598 7.297 103.58 7.243 103.58 7.171C103.562 7.153 103.526 7.144 103.472 7.144C103.382 7.144 103.337 7.081 103.337 6.955C103.337 6.811 103.409 6.712 103.553 6.658L103.688 6.55V6.577L103.796 6.442H103.85C103.958 6.442 104.03 6.388 104.066 6.28C104.12 6.172 104.228 6.1 104.39 6.064C104.498 6.028 104.588 6.037 104.66 6.091C104.732 6.145 104.822 6.172 104.93 6.172C105.038 6.172 105.155 6.136 105.281 6.064L105.686 5.983C105.74 5.983 105.767 6.001 105.767 6.037C105.767 6.073 105.713 6.118 105.605 6.172C105.515 6.226 105.452 6.271 105.416 6.307L105.389 6.334L105.362 6.388L105.254 6.523C105.146 6.649 105.02 6.802 104.876 6.982C104.75 7.144 104.615 7.279 104.471 7.387C104.309 7.513 104.183 7.576 104.093 7.576ZM99.9894 16.081C99.8814 16.081 99.8274 16.018 99.8274 15.892C99.8274 15.802 99.8544 15.694 99.9084 15.568C100.052 15.262 100.214 14.83 100.394 14.272C100.592 13.714 100.835 13.237 101.123 12.841C101.321 12.445 101.501 12.058 101.663 11.68C101.843 11.284 102.014 10.888 102.176 10.492C102.176 10.492 102.158 10.483 102.122 10.465C102.104 10.429 102.095 10.393 102.095 10.357C101.987 10.285 101.87 10.186 101.744 10.06C101.636 9.916 101.627 9.772 101.717 9.628C101.753 9.592 101.78 9.574 101.798 9.574C101.816 9.574 101.825 9.574 101.825 9.574C101.825 9.556 101.816 9.547 101.798 9.547C101.798 9.529 101.798 9.52 101.798 9.52C101.798 9.448 101.834 9.403 101.906 9.385C101.978 9.367 102.014 9.34 102.014 9.304C102.05 9.052 102.266 8.863 102.662 8.737C103.058 8.611 103.409 8.548 103.715 8.548C104.021 8.548 104.174 8.593 104.174 8.683C104.174 8.719 104.12 8.782 104.012 8.872C103.958 8.908 103.868 8.989 103.742 9.115C103.616 9.241 103.499 9.394 103.391 9.574L103.175 9.898C103.157 9.934 103.13 9.979 103.094 10.033C103.076 10.069 103.049 10.105 103.013 10.141C102.725 10.663 102.491 11.104 102.311 11.464C102.131 11.824 101.915 12.283 101.663 12.841C101.627 12.949 101.609 13.021 101.609 13.057C101.609 13.183 101.681 13.246 101.825 13.246C101.933 13.246 102.041 13.219 102.149 13.165L102.419 13.057C102.851 12.661 103.301 12.328 103.769 12.058C103.787 12.058 103.796 12.058 103.796 12.058C103.814 12.04 103.832 12.031 103.85 12.031C103.904 12.031 103.94 12.067 103.958 12.139C103.976 12.193 103.958 12.238 103.904 12.274C103.382 12.562 102.896 12.931 102.446 13.381C102.428 13.417 102.41 13.453 102.392 13.489C102.374 13.525 102.347 13.561 102.311 13.597C102.275 13.633 102.221 13.696 102.149 13.786C102.095 13.876 102.068 13.93 102.068 13.948C102.05 14.002 102.023 14.02 101.987 14.002C101.969 13.984 101.915 14.011 101.825 14.083C101.807 14.101 101.789 14.137 101.771 14.191C101.771 14.245 101.762 14.29 101.744 14.326C101.726 14.38 101.69 14.425 101.636 14.461C101.6 14.479 101.582 14.497 101.582 14.515C101.564 14.587 101.528 14.632 101.474 14.65C101.438 14.65 101.402 14.668 101.366 14.704C101.348 14.722 101.348 14.749 101.366 14.785C101.384 14.821 101.375 14.857 101.339 14.893C101.321 14.947 101.303 14.974 101.285 14.974C101.267 14.956 101.24 14.965 101.204 15.001C101.132 15.073 101.078 15.109 101.042 15.109C100.934 15.145 100.889 15.172 100.907 15.19C100.943 15.208 100.97 15.226 100.988 15.244C101.024 15.244 100.997 15.271 100.907 15.325C100.871 15.343 100.835 15.397 100.799 15.487C100.763 15.559 100.727 15.613 100.691 15.649C100.637 15.685 100.583 15.712 100.529 15.73C100.493 15.748 100.448 15.784 100.394 15.838C100.232 16 100.097 16.081 99.9894 16.081ZM105.983 16.243C105.587 16.243 105.236 16.135 104.93 15.919C104.642 15.685 104.498 15.289 104.498 14.731C104.498 14.533 104.534 14.254 104.606 13.894C104.678 13.534 104.795 13.156 104.957 12.76C105.047 12.544 105.146 12.337 105.254 12.139C105.38 11.941 105.497 11.752 105.605 11.572C105.623 11.554 105.677 11.572 105.767 11.626C105.875 11.68 105.938 11.698 105.956 11.68C105.974 11.644 105.947 11.608 105.875 11.572C105.821 11.518 105.803 11.482 105.821 11.464C105.857 11.428 105.884 11.41 105.902 11.41C105.938 11.392 105.965 11.365 105.983 11.329C106.001 11.293 106.01 11.257 106.01 11.221C106.01 11.167 105.983 11.122 105.929 11.086C105.893 11.05 105.911 10.996 105.983 10.924C106.073 10.798 106.172 10.681 106.28 10.573C106.406 10.447 106.514 10.339 106.604 10.249C106.64 10.213 106.685 10.159 106.739 10.087C106.793 9.997 106.829 9.943 106.847 9.925L106.901 9.871C106.919 9.853 106.937 9.835 106.955 9.817C106.955 9.799 106.955 9.79 106.955 9.79C106.973 9.79 106.982 9.781 106.982 9.763C106.982 9.709 106.928 9.655 106.82 9.601C106.712 9.547 106.658 9.511 106.658 9.493C106.658 9.475 106.649 9.457 106.631 9.439C106.613 9.421 106.595 9.394 106.577 9.358C106.595 9.358 106.613 9.34 106.631 9.304C106.667 9.25 106.694 9.223 106.712 9.223C106.73 9.223 106.766 9.241 106.82 9.277C106.874 9.295 106.91 9.304 106.928 9.304C106.946 9.304 106.955 9.295 106.955 9.277C106.973 9.259 106.991 9.25 107.009 9.25C107.045 9.25 107.126 9.277 107.252 9.331C107.378 9.367 107.45 9.385 107.468 9.385C107.486 9.385 107.54 9.34 107.63 9.25C107.72 9.16 107.774 9.106 107.792 9.088C107.828 9.052 107.855 9.016 107.873 8.98C107.891 8.926 107.936 8.863 108.008 8.791H108.035C108.053 8.773 108.062 8.755 108.062 8.737C108.062 8.719 108.062 8.71 108.062 8.71C108.098 8.674 108.125 8.647 108.143 8.629C108.179 8.593 108.206 8.566 108.224 8.548C108.242 8.53 108.251 8.521 108.251 8.521C108.269 8.521 108.278 8.521 108.278 8.521C108.296 8.485 108.314 8.458 108.332 8.44C108.368 8.422 108.395 8.404 108.413 8.386L108.467 8.278C108.503 8.242 108.629 8.161 108.845 8.035C109.061 7.909 109.223 7.846 109.331 7.846H109.466C109.466 7.846 109.466 7.855 109.466 7.873C109.466 7.873 109.475 7.873 109.493 7.873C109.511 7.873 109.529 7.873 109.547 7.873C109.565 7.855 109.583 7.846 109.601 7.846C109.601 7.846 109.628 7.873 109.682 7.927C109.7 7.945 109.718 7.954 109.736 7.954C109.754 7.936 109.772 7.927 109.79 7.927C109.808 7.945 109.817 7.963 109.817 7.981C109.817 7.999 109.826 8.008 109.844 8.008C109.88 8.008 109.889 8.008 109.871 8.008C109.871 7.99 109.88 7.981 109.898 7.981C109.916 7.981 109.925 7.999 109.925 8.035C109.925 8.071 109.934 8.107 109.952 8.143C109.934 8.197 109.916 8.26 109.898 8.332C109.898 8.386 109.889 8.431 109.871 8.467C109.709 8.683 109.583 8.791 109.493 8.791C109.493 8.809 109.466 8.845 109.412 8.899C109.358 8.899 109.295 8.917 109.223 8.953C109.151 8.989 109.079 9.025 109.007 9.061V9.142C109.007 9.214 108.98 9.25 108.926 9.25C108.89 9.232 108.854 9.259 108.818 9.331V9.358C108.854 9.412 108.917 9.439 109.007 9.439L109.196 9.466C109.232 9.466 109.25 9.457 109.25 9.439C109.268 9.421 109.286 9.412 109.304 9.412C109.322 9.412 109.331 9.421 109.331 9.439C109.331 9.439 109.34 9.439 109.358 9.439C109.394 9.439 109.421 9.43 109.439 9.412C109.457 9.394 109.475 9.385 109.493 9.385L109.736 9.412C109.682 9.322 109.655 9.25 109.655 9.196C109.655 9.106 109.736 9.052 109.898 9.034C110.15 9.034 110.366 9.124 110.546 9.304C110.582 9.286 110.627 9.286 110.681 9.304C110.735 9.322 110.789 9.322 110.843 9.304L110.978 9.223L111.005 9.25C111.077 9.214 111.122 9.196 111.14 9.196C111.176 9.196 111.185 9.205 111.167 9.223C111.167 9.223 111.176 9.223 111.194 9.223C111.194 9.223 111.212 9.205 111.248 9.169C111.266 9.169 111.284 9.178 111.302 9.196C111.338 9.196 111.365 9.187 111.383 9.169L111.464 9.088H111.788L111.815 9.061C111.851 9.043 111.896 9.025 111.95 9.007C112.022 8.971 112.085 8.953 112.139 8.953C112.139 8.935 112.157 8.926 112.193 8.926C112.229 8.908 112.256 8.899 112.274 8.899H112.328C112.418 8.899 112.463 8.926 112.463 8.98C112.463 9.034 112.436 9.079 112.382 9.115C112.364 9.133 112.337 9.142 112.301 9.142C112.265 9.124 112.229 9.124 112.193 9.142C112.121 9.214 112.067 9.25 112.031 9.25C112.013 9.25 112.004 9.25 112.004 9.25C112.004 9.232 111.995 9.223 111.977 9.223C111.959 9.223 111.923 9.25 111.869 9.304L111.68 9.331H111.653C111.617 9.331 111.599 9.349 111.599 9.385C111.527 9.385 111.455 9.394 111.383 9.412C111.311 9.412 111.239 9.421 111.167 9.439L111.14 9.466C111.122 9.466 111.104 9.475 111.086 9.493C111.068 9.493 111.041 9.493 111.005 9.493C110.969 9.511 110.87 9.52 110.708 9.52C110.816 9.664 110.888 9.799 110.924 9.925C110.96 10.015 110.987 10.159 111.005 10.357C111.041 10.537 111.05 10.672 111.032 10.762C111.032 10.816 111.014 10.834 110.978 10.816C110.942 10.78 110.924 10.78 110.924 10.816C110.924 10.87 110.942 10.906 110.978 10.924C111.032 10.924 111.059 10.969 111.059 11.059C111.059 11.113 111.05 11.185 111.032 11.275C111.014 11.347 110.996 11.428 110.978 11.518C110.96 11.626 110.933 11.743 110.897 11.869C110.879 11.977 110.834 12.085 110.762 12.193L110.681 12.328V12.49C110.681 12.634 110.636 12.733 110.546 12.787C110.474 12.841 110.42 12.904 110.384 12.976C110.348 13.084 110.321 13.156 110.303 13.192C110.303 13.228 110.267 13.3 110.195 13.408C109.961 13.768 109.682 14.11 109.358 14.434C109.034 14.758 108.719 15.055 108.413 15.325C108.143 15.559 107.774 15.775 107.306 15.973C106.856 16.153 106.415 16.243 105.983 16.243ZM106.253 15.757C106.307 15.757 106.415 15.748 106.577 15.73C106.739 15.694 106.91 15.613 107.09 15.487C107.126 15.469 107.162 15.478 107.198 15.514C107.234 15.55 107.27 15.559 107.306 15.541C107.396 15.505 107.432 15.478 107.414 15.46C107.396 15.442 107.423 15.424 107.495 15.406H107.522C107.63 15.406 107.675 15.397 107.657 15.379C107.657 15.343 107.666 15.298 107.684 15.244C107.684 15.19 107.711 15.145 107.765 15.109C107.819 15.073 107.864 15.046 107.9 15.028C108.098 14.866 108.341 14.596 108.629 14.218C108.917 13.822 109.205 13.426 109.493 13.03C109.511 12.994 109.538 12.985 109.574 13.003C109.61 13.021 109.637 13.021 109.655 13.003C109.673 12.985 109.682 12.931 109.682 12.841C109.682 12.787 109.709 12.706 109.763 12.598C109.817 12.472 109.871 12.373 109.925 12.301C109.943 12.247 109.979 12.148 110.033 12.004C110.087 11.842 110.132 11.698 110.168 11.572C110.222 11.428 110.231 11.356 110.195 11.356C110.159 11.338 110.141 11.32 110.141 11.302C110.141 11.266 110.195 11.23 110.303 11.194C110.411 11.158 110.402 11.131 110.276 11.113C110.24 11.095 110.249 11.059 110.303 11.005C110.357 10.951 110.33 10.915 110.222 10.897C110.132 10.879 110.096 10.852 110.114 10.816C110.15 10.78 110.177 10.753 110.195 10.735C110.249 10.681 110.276 10.627 110.276 10.573C110.276 10.411 110.231 10.249 110.141 10.087C110.069 9.925 109.988 9.781 109.898 9.655C109.79 9.727 109.736 9.763 109.736 9.763C109.718 9.763 109.709 9.763 109.709 9.763C109.709 9.745 109.691 9.736 109.655 9.736C109.637 9.736 109.628 9.736 109.628 9.736C109.628 9.718 109.619 9.709 109.601 9.709C109.583 9.709 109.565 9.718 109.547 9.736C109.529 9.754 109.52 9.763 109.52 9.763C109.502 9.781 109.466 9.79 109.412 9.79C109.376 9.79 109.349 9.79 109.331 9.79C109.313 9.79 109.295 9.781 109.277 9.763C109.277 9.745 109.268 9.736 109.25 9.736C109.232 9.736 109.205 9.754 109.169 9.79C109.151 9.826 109.124 9.844 109.088 9.844C109.07 9.844 109.061 9.835 109.061 9.817C109.061 9.799 109.043 9.79 109.007 9.79C108.989 9.79 108.971 9.799 108.953 9.817C108.953 9.835 108.944 9.844 108.926 9.844C108.908 9.844 108.872 9.817 108.818 9.763H108.791C108.791 9.871 108.764 9.925 108.71 9.925C108.692 9.925 108.665 9.907 108.629 9.871C108.431 9.997 108.098 10.294 107.63 10.762C107.162 11.212 106.748 11.734 106.388 12.328C106.316 12.472 106.226 12.643 106.118 12.841C106.028 13.039 105.947 13.264 105.875 13.516C105.857 13.624 105.803 13.705 105.713 13.759C105.641 13.813 105.587 13.876 105.551 13.948C105.533 14.02 105.542 14.065 105.578 14.083C105.614 14.101 105.641 14.128 105.659 14.164C105.659 14.236 105.641 14.335 105.605 14.461C105.587 14.587 105.578 14.704 105.578 14.812C105.578 15.154 105.641 15.397 105.767 15.541C105.911 15.685 106.073 15.757 106.253 15.757ZM112.932 15.946C112.752 15.946 112.563 15.91 112.365 15.838C112.167 15.748 112.095 15.649 112.149 15.541C112.221 15.397 112.302 15.253 112.392 15.109C112.5 14.947 112.599 14.776 112.689 14.596L112.986 14.029C113.022 13.939 113.058 13.876 113.094 13.84C113.148 13.786 113.193 13.723 113.229 13.651C113.247 13.633 113.256 13.588 113.256 13.516C113.256 13.426 113.292 13.327 113.364 13.219C113.454 13.093 113.517 12.976 113.553 12.868C113.571 12.85 113.589 12.904 113.607 13.03C113.625 13.156 113.67 13.147 113.742 13.003C113.76 12.985 113.751 12.958 113.715 12.922C113.697 12.886 113.688 12.85 113.688 12.814C113.688 12.778 113.697 12.76 113.715 12.76C113.751 12.742 113.769 12.724 113.769 12.706C113.787 12.652 113.769 12.634 113.715 12.652C113.679 12.652 113.661 12.643 113.661 12.625C113.697 12.571 113.733 12.535 113.769 12.517C113.823 12.499 113.859 12.472 113.877 12.436C113.877 12.4 113.859 12.382 113.823 12.382C113.805 12.364 113.805 12.346 113.823 12.328C113.913 12.076 114.012 11.779 114.12 11.437C114.228 11.095 114.309 10.78 114.363 10.492C114.363 10.492 114.345 10.483 114.309 10.465C114.273 10.429 114.255 10.393 114.255 10.357L114.066 10.222C113.85 10.42 113.616 10.591 113.364 10.735C113.346 10.753 113.31 10.762 113.256 10.762C113.184 10.762 113.139 10.726 113.121 10.654C113.103 10.582 113.13 10.519 113.202 10.465C113.292 10.411 113.364 10.375 113.418 10.357C113.472 10.321 113.535 10.267 113.607 10.195C113.643 10.159 113.661 10.123 113.661 10.087C113.679 10.051 113.697 10.015 113.715 9.979L113.823 9.844C113.823 9.754 113.841 9.682 113.877 9.628C113.913 9.592 113.94 9.574 113.958 9.574C113.976 9.574 113.985 9.574 113.985 9.574V9.52C113.985 9.448 114.012 9.403 114.066 9.385C114.138 9.367 114.174 9.34 114.174 9.304C114.21 9.052 114.426 8.863 114.822 8.737C115.218 8.611 115.569 8.548 115.875 8.548C116.181 8.548 116.334 8.593 116.334 8.683C116.334 8.737 116.28 8.8 116.172 8.872C116.118 8.908 116.028 8.989 115.902 9.115C115.776 9.241 115.659 9.394 115.551 9.574L115.362 9.898L115.173 10.141C115.047 10.429 114.867 10.87 114.633 11.464C114.399 12.058 114.156 12.805 113.904 13.705C113.958 13.633 114.084 13.48 114.282 13.246C114.48 13.012 114.714 12.742 114.984 12.436C115.254 12.13 115.515 11.842 115.767 11.572C116.019 11.284 116.226 11.059 116.388 10.897L116.523 10.816C116.559 10.78 116.595 10.735 116.631 10.681C116.685 10.609 116.73 10.555 116.766 10.519C116.784 10.501 116.793 10.537 116.793 10.627C116.811 10.699 116.829 10.726 116.847 10.708C116.919 10.654 116.955 10.573 116.955 10.465C116.973 10.357 117.018 10.285 117.09 10.249C117.288 10.087 117.558 9.862 117.9 9.574C118.26 9.268 118.629 9.088 119.007 9.034C119.043 8.998 119.097 8.989 119.169 9.007C119.259 9.007 119.322 8.998 119.358 8.98C119.394 8.98 119.421 8.971 119.439 8.953C119.457 8.935 119.502 8.926 119.574 8.926C119.61 8.926 119.682 8.953 119.79 9.007C119.916 9.061 119.988 9.133 120.006 9.223C120.114 9.295 120.168 9.403 120.168 9.547C120.168 9.799 120.033 9.988 119.763 10.114C119.673 10.204 119.574 10.294 119.466 10.384C119.358 10.456 119.25 10.537 119.142 10.627C119.106 10.663 119.079 10.681 119.061 10.681C118.935 10.789 118.827 10.906 118.737 11.032C118.647 11.158 118.602 11.32 118.602 11.518C118.602 11.536 118.62 11.563 118.656 11.599C118.692 11.617 118.701 11.635 118.683 11.653C118.737 11.707 118.818 11.743 118.926 11.761C119.034 11.761 119.142 11.761 119.25 11.761C119.43 11.761 119.7 11.689 120.06 11.545H120.114C120.132 11.545 120.141 11.554 120.141 11.572C120.141 11.608 120.105 11.671 120.033 11.761C119.961 11.833 119.88 11.887 119.79 11.923C119.592 11.995 119.385 12.04 119.169 12.058C118.953 12.058 118.8 12.058 118.71 12.058C118.386 12.058 118.179 11.995 118.089 11.869C118.017 11.743 117.945 11.59 117.873 11.41V11.275L118.008 11.14C117.99 11.086 117.963 11.032 117.927 10.978C117.891 10.924 117.873 10.861 117.873 10.789C117.873 10.609 117.945 10.402 118.089 10.168C117.891 10.222 117.639 10.375 117.333 10.627C117.045 10.861 116.748 11.14 116.442 11.464C116.136 11.77 115.857 12.076 115.605 12.382C115.353 12.67 115.155 12.904 115.011 13.084C114.957 13.156 114.894 13.201 114.822 13.219C114.768 13.219 114.723 13.246 114.687 13.3C114.669 13.318 114.687 13.327 114.741 13.327C114.813 13.327 114.84 13.336 114.822 13.354C114.588 13.714 114.336 14.11 114.066 14.542C113.814 14.974 113.562 15.397 113.31 15.811C113.256 15.901 113.13 15.946 112.932 15.946ZM132.277 16.945C132.043 16.945 131.773 16.828 131.467 16.594C131.179 16.36 130.882 16.081 130.576 15.757C130.27 15.433 129.982 15.118 129.712 14.812C129.442 14.506 129.217 14.272 129.037 14.11C128.731 13.84 128.434 13.579 128.146 13.327C127.858 13.057 127.714 12.697 127.714 12.247C127.714 12.121 127.75 11.986 127.822 11.842V11.923L127.876 12.058L127.957 12.004L128.038 11.923L127.93 11.734L128.281 11.599L128.416 11.761L128.551 11.491C128.875 11.275 129.172 11.041 129.442 10.789C129.73 10.519 130.018 10.258 130.306 10.006L130.576 10.141L130.792 9.979C130.738 9.853 130.639 9.745 130.495 9.655C130.603 9.547 130.747 9.475 130.927 9.439L130.954 9.493L130.9 9.628L130.927 9.709C131.053 9.583 131.179 9.412 131.305 9.196L131.278 9.088C131.62 8.836 131.989 8.629 132.385 8.467C132.781 8.287 133.15 8.062 133.492 7.792L133.654 8.089C133.528 8.233 133.384 8.422 133.222 8.656C133.078 8.872 133.006 9.079 133.006 9.277L132.844 9.223C132.394 9.655 131.935 10.096 131.467 10.546C131.017 10.996 130.63 11.5 130.306 12.058C130.126 12.202 129.901 12.355 129.631 12.517C129.379 12.661 129.208 12.85 129.118 13.084C129.208 13.264 129.352 13.408 129.55 13.516C129.766 13.606 129.892 13.759 129.928 13.975L129.955 13.84C130.171 14.02 130.396 14.236 130.63 14.488C130.864 14.722 130.954 14.992 130.9 15.298L130.954 15.325L131.143 15.271L131.224 15.298C131.368 15.424 131.503 15.559 131.629 15.703C131.773 15.847 131.881 16 131.953 16.162C132.061 16.27 132.16 16.369 132.25 16.459C132.34 16.549 132.403 16.666 132.439 16.81L132.277 16.945ZM136.107 16.756C135.999 16.756 135.918 16.729 135.864 16.675C135.81 16.621 135.792 16.576 135.81 16.54L136.674 15.541L136.89 15.163C136.908 15.127 136.953 15.091 137.025 15.055C137.115 15.001 137.178 14.956 137.214 14.92C137.268 14.884 137.277 14.848 137.241 14.812C137.205 14.776 137.196 14.749 137.214 14.731C137.25 14.695 137.277 14.677 137.295 14.677C137.331 14.659 137.376 14.641 137.43 14.623C137.43 14.623 137.421 14.605 137.403 14.569C137.385 14.515 137.403 14.47 137.457 14.434L137.916 13.975L137.592 14.137C137.592 14.119 137.565 14.092 137.511 14.056C137.529 14.02 137.538 13.993 137.538 13.975C137.556 13.939 137.547 13.912 137.511 13.894L137.754 13.624C137.934 13.552 138.024 13.489 138.024 13.435C138.024 13.363 138.051 13.3 138.105 13.246C138.123 13.21 138.177 13.174 138.267 13.138C138.357 13.084 138.411 13.048 138.429 13.03C138.447 12.994 138.447 12.976 138.429 12.976C138.411 12.958 138.411 12.94 138.429 12.922L138.699 12.598C138.735 12.562 138.78 12.526 138.834 12.49C138.888 12.454 138.897 12.427 138.861 12.409C138.843 12.355 138.861 12.301 138.915 12.247L139.05 12.166C139.086 12.13 139.113 12.085 139.131 12.031C139.167 11.977 139.212 11.923 139.266 11.869C139.266 11.869 139.257 11.869 139.239 11.869C139.221 11.851 139.221 11.833 139.239 11.815C139.293 11.761 139.338 11.725 139.374 11.707C139.41 11.689 139.464 11.662 139.536 11.626C139.572 11.59 139.59 11.563 139.59 11.545C139.59 11.527 139.599 11.509 139.617 11.491C139.635 11.473 139.662 11.464 139.698 11.464C139.752 11.446 139.788 11.428 139.806 11.41L139.914 11.194C139.914 11.194 139.959 11.194 140.049 11.194C140.013 11.176 139.995 11.122 139.995 11.032C140.031 11.032 140.085 11.005 140.157 10.951C140.247 10.897 140.274 10.843 140.238 10.789L140.481 10.519C140.499 10.519 140.517 10.519 140.535 10.519C140.571 10.501 140.607 10.492 140.643 10.492C140.643 10.456 140.634 10.438 140.616 10.438C140.616 10.42 140.625 10.402 140.643 10.384C140.661 10.366 140.688 10.357 140.724 10.357C140.778 10.339 140.814 10.321 140.832 10.303C140.85 10.267 140.859 10.24 140.859 10.222C140.859 10.204 140.868 10.186 140.886 10.168C140.922 10.096 140.976 10.024 141.048 9.952C141.138 9.862 141.201 9.781 141.237 9.709V9.682C141.237 9.682 141.345 9.556 141.561 9.304C141.795 9.052 142.056 8.764 142.344 8.44C142.65 8.116 142.92 7.855 143.154 7.657C143.154 7.639 143.145 7.63 143.127 7.63C143.127 7.63 143.127 7.621 143.127 7.603C143.163 7.567 143.199 7.549 143.235 7.549C143.289 7.513 143.361 7.459 143.451 7.387C143.541 7.315 143.595 7.27 143.613 7.252C143.649 7.216 143.694 7.144 143.748 7.036C143.802 6.928 143.838 6.865 143.856 6.847C143.892 6.793 143.973 6.73 144.099 6.658C144.243 6.568 144.324 6.478 144.342 6.388C144.378 6.352 144.432 6.316 144.504 6.28C144.576 6.244 144.621 6.208 144.639 6.172C144.693 6.1 144.756 6.028 144.828 5.956C144.9 5.866 144.954 5.785 144.99 5.713C145.134 5.659 145.233 5.605 145.287 5.551C145.359 5.479 145.422 5.416 145.476 5.362H145.503C145.539 5.344 145.566 5.326 145.584 5.308C145.62 5.29 145.647 5.272 145.665 5.254C145.701 5.218 145.719 5.146 145.719 5.038H145.773C145.809 5.02 145.836 5.002 145.854 4.984C145.872 4.948 145.89 4.921 145.908 4.903L146.097 4.822L146.583 4.282C146.601 4.282 146.61 4.291 146.61 4.309C146.628 4.309 146.646 4.309 146.664 4.309C146.7 4.273 146.7 4.255 146.664 4.255L146.799 4.174C146.835 4.138 146.862 4.111 146.88 4.093C146.898 4.057 146.916 4.03 146.934 4.012L147.366 3.796H147.42C147.456 3.796 147.465 3.805 147.447 3.823C147.429 3.823 147.429 3.832 147.447 3.85C147.555 3.814 147.645 3.76 147.717 3.688C147.717 3.688 147.735 3.706 147.771 3.742L148.095 3.769C148.131 3.787 148.149 3.796 148.149 3.796C148.167 3.778 148.194 3.769 148.23 3.769C148.266 3.769 148.311 3.778 148.365 3.796C148.419 3.814 148.455 3.841 148.473 3.877H148.554C148.59 3.877 148.608 3.877 148.608 3.877C148.608 3.859 148.617 3.85 148.635 3.85V3.985C148.617 4.003 148.599 4.03 148.581 4.066C148.563 4.084 148.536 4.102 148.5 4.12C148.482 4.138 148.428 4.192 148.338 4.282C148.266 4.372 148.203 4.444 148.149 4.498L147.771 4.768C147.753 4.786 147.717 4.813 147.663 4.849C147.627 4.867 147.591 4.894 147.555 4.93C147.447 5.02 147.321 5.119 147.177 5.227C147.051 5.335 146.943 5.443 146.853 5.551C146.835 5.551 146.817 5.56 146.799 5.578L146.745 5.632C146.727 5.65 146.7 5.677 146.664 5.713C146.646 5.731 146.628 5.749 146.61 5.767C146.574 5.803 146.52 5.848 146.448 5.902C146.394 5.938 146.34 5.974 146.286 6.01C146.25 6.028 146.205 6.073 146.151 6.145C146.115 6.199 146.079 6.253 146.043 6.307L145.638 6.685C145.638 6.721 145.638 6.739 145.638 6.739C145.602 6.757 145.548 6.775 145.476 6.793C145.422 6.811 145.377 6.82 145.341 6.82C145.287 6.82 145.26 6.802 145.26 6.766C145.296 6.73 145.332 6.703 145.368 6.685C145.404 6.649 145.431 6.613 145.449 6.577C145.449 6.577 145.449 6.559 145.449 6.523C145.431 6.541 145.413 6.559 145.395 6.577C145.395 6.577 145.386 6.586 145.368 6.604C145.296 6.604 145.233 6.631 145.179 6.685C145.107 6.757 145.026 6.838 144.936 6.928C144.846 7.018 144.756 7.108 144.666 7.198L144.369 7.441C144.117 7.639 143.928 7.846 143.802 8.062C143.694 8.278 143.487 8.503 143.181 8.737C143.145 8.773 143.046 8.872 142.884 9.034C142.722 9.178 142.56 9.331 142.398 9.493C142.236 9.655 142.137 9.754 142.101 9.79C142.011 9.898 141.867 10.042 141.669 10.222C141.489 10.384 141.327 10.555 141.183 10.735L140.724 11.275C140.58 11.401 140.436 11.545 140.292 11.707C140.148 11.869 140.022 12.004 139.914 12.112L139.698 12.409L139.023 13.111C138.969 13.201 138.879 13.291 138.753 13.381C138.735 13.399 138.726 13.417 138.726 13.435C138.744 13.453 138.744 13.48 138.726 13.516C138.708 13.534 138.672 13.57 138.618 13.624C138.564 13.66 138.51 13.696 138.456 13.732C138.438 13.732 138.429 13.741 138.429 13.759C138.429 13.777 138.42 13.795 138.402 13.813C138.384 13.849 138.339 13.894 138.267 13.948C138.213 14.002 138.159 14.056 138.105 14.11C138.105 14.11 138.096 14.137 138.078 14.191C138.06 14.227 138.033 14.263 137.997 14.299C137.709 14.641 137.565 14.83 137.565 14.866C137.565 14.902 137.556 14.929 137.538 14.947C137.52 15.001 137.466 15.073 137.376 15.163C137.304 15.253 137.259 15.316 137.241 15.352C137.241 15.352 137.187 15.451 137.079 15.649C136.971 15.829 136.845 16.027 136.701 16.243C136.575 16.459 136.467 16.603 136.377 16.675C136.305 16.729 136.215 16.756 136.107 16.756ZM148.971 16.945L148.782 16.648C148.908 16.504 149.043 16.315 149.187 16.081C149.349 15.865 149.439 15.658 149.457 15.46L149.592 15.514C150.06 15.082 150.519 14.641 150.969 14.191C151.419 13.741 151.806 13.237 152.13 12.679C152.328 12.535 152.553 12.391 152.805 12.247C153.075 12.085 153.255 11.887 153.345 11.653C153.255 11.455 153.102 11.311 152.886 11.221C152.688 11.131 152.571 10.978 152.535 10.762L152.481 10.897C152.265 10.717 152.04 10.51 151.806 10.276C151.572 10.024 151.491 9.745 151.563 9.439L151.482 9.412L151.32 9.466L151.212 9.439C151.086 9.313 150.951 9.178 150.807 9.034C150.663 8.89 150.555 8.737 150.483 8.575C150.375 8.467 150.276 8.368 150.186 8.278C150.096 8.188 150.033 8.071 149.997 7.927L150.186 7.792C150.402 7.792 150.654 7.909 150.942 8.143C151.248 8.377 151.554 8.656 151.86 8.98C152.166 9.304 152.454 9.619 152.724 9.925C153.012 10.231 153.246 10.465 153.426 10.627C153.732 10.897 154.02 11.167 154.29 11.437C154.578 11.689 154.722 12.04 154.722 12.49C154.722 12.562 154.713 12.634 154.695 12.706C154.677 12.76 154.659 12.814 154.641 12.868V12.814L154.56 12.679L154.479 12.733L154.398 12.814L154.506 13.003L154.155 13.138L154.02 12.976L153.885 13.246C153.561 13.462 153.255 13.705 152.967 13.975C152.697 14.227 152.418 14.479 152.13 14.731L151.887 14.596L151.644 14.758C151.698 14.884 151.806 14.992 151.968 15.082C151.824 15.208 151.671 15.28 151.509 15.298L151.482 15.244L151.563 15.109L151.509 15.028C151.383 15.154 151.257 15.325 151.131 15.541L151.158 15.649C150.816 15.901 150.447 16.108 150.051 16.27C149.655 16.45 149.295 16.675 148.971 16.945Z" fill="url(#paint0_linear_4827_188)"/>
<defs>
<linearGradient id="paint0_linear_4827_188" x1="155.306" y1="3.75002" x2="0.0561078" y2="18.7245" gradientUnits="userSpaceOnUse">
<stop stop-color="#12FFF7"/>
<stop offset="1" stop-color="#B1FFAB"/>
</linearGradient>
</defs>
</svg>
